<svg width="129" height="129" viewBox="0 0 129 129" fill="none" xmlns="http://www.w3.org/2000/svg">
<g clip-path="url(#clip0_13082_10673)">
<path d="M0 0H129V129H0V0Z" fill="#FDFEFE"/>
<path d="M78.1637 45.6302C77.358 45.4735 76.5908 45.2719 76.097 44.5533C75.8791 44.2357 75.8148 43.8145 75.7802 43.4365C75.6466 41.9953 75.7632 40.1326 75.7651 38.6559C75.7663 37.4655 75.6221 35.4789 75.8312 34.359C75.9521 33.7136 76.349 33.1935 76.8995 32.8506C77.4582 32.5029 78.1063 32.3301 78.7507 32.229C81.3143 31.8262 91.3414 31.7978 93.6052 32.3838C94.3857 32.5858 95.2121 33.0004 95.6316 33.7199C95.8243 34.0502 95.8867 34.4874 95.9169 34.8657C96.0271 36.2519 95.9358 37.7101 95.9333 39.1028C95.9308 40.5091 96.0095 41.9609 95.9371 43.3623C95.9251 43.5957 95.8879 43.8322 95.8193 44.0557C95.6505 44.6049 95.2914 45.0133 94.7787 45.2679C94.3869 45.4622 93.9573 45.5438 93.5328 45.6318C93.5857 47.1599 93.6267 48.7273 94.9236 49.688C98.5813 52.398 100.848 55.9529 100.993 60.5986C101.048 62.3884 100.986 64.3783 100.987 66.2692L101.003 78.7756C101.024 81.9546 101.026 85.133 101.007 88.312C101.006 90.0039 101.055 91.7499 100.956 93.4392C100.91 94.2222 100.464 95.1557 100.047 95.8082L100.092 95.9865C100.324 96.115 100.812 96.1421 101.099 96.1622C103.48 96.331 105.909 96.4595 108.222 97.0881C108.67 97.2103 108.96 97.4195 109.29 97.7325C108.921 97.9794 108.508 98.2301 108.048 98.3315C104.844 99.0332 101.515 99.2474 98.2418 99.3501C97.4349 99.3753 96.3717 98.9898 95.5994 98.986C95.0036 98.9835 92.5936 98.7019 92.1956 98.8039C91.298 101.355 87.5439 102.058 85.1717 102.109C82.9224 102.622 79.4492 101.701 77.535 100.521C77.4576 100.473 77.0009 101.129 76.8749 101.245C76.8655 101.339 76.8352 101.387 76.8995 101.466C77.411 102.095 81.434 102.202 82.4242 102.52C82.5565 102.562 82.7026 102.552 82.8412 102.554C82.5634 102.702 79.6433 102.19 79.0915 102.162C78.7495 102.337 76.8352 101.754 76.6028 101.747C75.4268 101.711 74.0178 101.837 72.8348 101.891L72.7939 101.939C73.0711 101.948 73.5082 102.341 73.3658 102.688C72.1615 103.663 67.8027 103.992 66.1612 104.113C63.551 104.29 60.9338 104.34 58.3188 104.261C53.386 104.157 48.3457 103.641 43.4552 103.033C42.9221 102.966 41.3294 102.541 41.3433 101.899C41.8161 101.009 45.5064 101.177 45.9014 100.832C45.4911 100.435 45.2649 100.151 44.9794 99.6618C44.9715 99.6581 44.9636 99.6555 44.956 99.6518C44.0949 99.2335 40.3008 100.033 39.0971 100.016C38.0809 100.001 37.0664 99.9144 36.0508 99.8792C31.6097 99.7248 27.0641 99.5094 22.6902 98.7013C22.0431 98.5816 21.2938 98.4877 20.6927 98.2125C20.4839 98.1167 20.275 97.8541 20.1152 97.6897C20.1226 97.6821 20.13 97.6752 20.1372 97.6676C20.3208 97.4806 20.4905 97.2998 20.7301 97.1839C22.0958 96.5219 27.6525 96.3669 28.0097 96.0551C27.6092 95.1179 27.4201 94.5875 27.4197 93.5583C27.4186 89.9579 27.4206 86.3549 27.4173 82.7545L27.4183 58.5892L27.4316 47.756L27.4314 44.298C27.4353 42.4883 27.3463 41.0199 28.7199 39.6204C30.2483 38.0632 31.9435 38.2417 33.9373 38.2484C35.5061 38.2669 37.075 38.2725 38.6439 38.2652L58.8511 38.2413C60.4562 38.2436 61.6377 38.394 62.8274 39.6061C63.4666 40.2575 63.8874 41.0916 64.031 41.9929C64.1551 42.8153 64.1091 44.7325 64.1085 45.6405L64.1015 52.2189L64.104 74.4042C66.4415 73.865 66.2186 73.9116 68.2386 75.1046C69.1085 74.7997 69.8007 74.4174 70.6945 74.5604C70.7172 71.7102 70.7222 68.8606 70.709 66.011C70.7052 63.2093 70.5175 60.0097 71.2224 57.3289C71.7716 55.2372 73.0396 53.1104 74.5708 51.5855C76.509 49.6553 78.1126 49.4813 78.1548 46.392C78.1561 46.138 78.1593 45.8841 78.1637 45.6302Z" fill="#3A4672"/>
<path d="M68.6857 100.659C69.1783 100.841 70.1439 100.872 70.7322 100.976C71.3785 101.09 72.0751 101.619 72.4732 101.687C73.6927 101.896 75.0028 101.519 76.284 101.607C77.3221 101.678 77.899 101.973 78.8495 102.062C78.9616 102.073 79.0133 102.065 79.092 102.162C78.75 102.337 76.8358 101.755 76.6034 101.748C75.4274 101.712 74.0183 101.838 72.8354 101.891L72.7945 101.939C73.0716 101.949 73.5087 102.342 73.3664 102.689C72.1621 103.663 67.8033 103.992 66.1618 104.113C63.5516 104.291 60.9343 104.34 58.3193 104.261C53.3866 104.158 48.3462 103.641 43.4557 103.033C42.9226 102.967 41.33 102.541 41.3438 101.9C41.8166 101.01 45.5069 101.177 45.9019 100.833C48.0304 102.434 48.9099 102.249 51.4613 102.52C53.454 102.744 55.4491 102.946 57.4462 103.125C58.7176 103.244 59.9884 103.372 61.2582 103.507C61.9457 103.579 62.9559 103.712 63.6309 103.723C64.2155 103.729 64.7975 103.655 65.3612 103.503C66.9832 103.056 67.8719 102.077 68.6857 100.659Z" fill="#C8D9EB"/>
<path d="M28.0097 96.0552L28.2098 96.3701C29.9199 99.0975 32.5815 98.455 35.344 98.5136C38.3561 98.5772 41.4022 98.455 44.4135 98.5199C44.5824 98.8802 44.7778 99.3274 44.9794 99.6619C44.9715 99.6581 44.9636 99.6556 44.956 99.6518C44.0949 99.2336 40.3008 100.034 39.0971 100.016C38.0809 100.001 37.0664 99.9145 36.0508 99.8792C31.6097 99.7249 27.0641 99.5095 22.6902 98.7013C22.0431 98.5816 21.2938 98.4878 20.6927 98.2125C20.4839 98.1168 20.275 97.8541 20.1152 97.6897C20.1226 97.6822 20.13 97.6752 20.1372 97.6677C20.3208 97.4806 20.4905 97.2998 20.7301 97.1839C22.0958 96.5219 27.6525 96.367 28.0097 96.0552Z" fill="#C8D9EB"/>
<path d="M100.047 95.8086L100.092 95.9868C100.324 96.1153 100.811 96.1424 101.099 96.1626C103.48 96.3314 105.908 96.4599 108.222 97.0885C108.67 97.2107 108.96 97.4198 109.29 97.7329C108.921 97.9798 108.507 98.2305 108.048 98.3319C104.844 99.0336 101.514 99.2478 98.2416 99.3504C97.4347 99.3756 96.3714 98.9901 95.5992 98.9863C95.0033 98.9838 92.5934 98.7023 92.1953 98.8043C92.2199 98.5127 92.2136 98.1114 92.218 97.811C92.8674 97.8148 93.5515 97.8034 94.1958 97.8129C96.7405 97.8519 98.3121 97.8431 100.047 95.8086Z" fill="#C8D9EB"/>
<path d="M64.1032 74.404C66.4407 73.8648 66.2177 73.9115 68.2377 75.1045C69.1076 74.7996 69.7999 74.4173 70.6937 74.5602C70.7453 75.7035 70.7044 77.1428 70.7151 78.3118C68.3329 77.8174 66.1667 79.1426 64.0742 80.1801C64.1504 78.4334 64.0975 76.1784 64.1032 74.404Z" fill="#D7E8F4"/>
<path d="M69.0584 99.4575C71.9408 100.122 73.9797 100.235 76.9232 99.6711C78.649 101.841 82.6173 102.092 85.1721 102.109C82.9228 102.623 79.4496 101.702 77.5354 100.521C77.4579 100.474 77.0013 101.129 76.8753 101.245C76.8658 101.339 76.8356 101.387 76.8999 101.467C77.4113 102.095 81.4344 102.202 82.4246 102.52C82.5568 102.562 82.703 102.553 82.8415 102.555C82.5638 102.702 79.6436 102.19 79.0918 102.162C79.0131 102.065 78.9615 102.073 78.8493 102.062C77.8988 101.973 77.3219 101.678 76.2838 101.607C75.0026 101.519 73.6925 101.896 72.473 101.687C72.0749 101.619 71.3783 101.09 70.732 100.976C70.1437 100.872 69.1781 100.841 68.6855 100.659C68.8695 100.185 68.9388 99.9526 69.0584 99.4575Z" fill="#A7CFEB"/>
<path d="M28.1266 94.8079C27.8805 94.2309 27.9626 90.7974 27.9616 90.0126L27.958 83.0776L27.9636 62.5087L27.9659 48.8926L27.9614 44.6835C27.9607 44.0304 27.928 42.9819 27.9878 42.3731C28.0783 41.5263 28.4389 40.7311 29.0163 40.105C29.8083 39.2547 31.0011 38.765 32.15 38.7697C33.6363 38.7757 35.1173 38.7841 36.6042 38.7789L50.6326 38.7787C52.6307 38.7631 54.6289 38.7641 56.627 38.7816C58.0118 38.7826 59.5865 38.6349 60.9031 39.036C62.1766 39.402 63.4221 40.7903 63.5147 42.1421C63.5966 43.348 63.5538 44.7099 63.5525 45.9379L63.5481 53.7249L63.5569 80.4094C62.7606 80.6972 61.246 81.4581 60.4239 81.8405C58.6656 82.6593 56.8995 83.4612 55.1257 84.246C54.8341 84.3084 54.7592 84.3581 54.4862 84.4942C51.4431 86.21 50.7023 88.3081 51.703 91.5986C51.359 91.569 50.9222 91.5432 50.5897 91.4934C50.3544 91.4764 50.1196 91.4525 49.8856 91.4229C46.7168 91.232 44.2696 93.5361 44.159 96.6862C44.169 97.214 44.1898 97.4849 44.2734 98.0014L35.644 98.0178C34.1797 98.019 32.593 98.094 31.1509 97.9075C29.8848 97.7438 28.1784 96.0966 28.1266 94.8079Z" fill="#E4E7EE"/>
<path d="M28.1279 94.8082L28.1394 94.6986C28.1636 94.4428 28.0739 94.2753 28.1646 94.1021C28.3215 94.2009 28.2761 94.2255 28.3583 94.3263C28.9362 95.0362 30.4705 96.5548 31.4456 96.6084C35.6045 96.8376 40.0022 96.5857 44.1603 96.6865C44.1703 97.2143 44.1911 97.4852 44.2747 98.0017L35.6453 98.018C34.181 98.0193 32.5943 98.0943 31.1522 97.9078C29.8861 97.744 28.1797 96.0969 28.1279 94.8082Z" fill="#C8D9EB"/>
<path d="M50.5897 91.4936C50.1346 90.586 49.8408 89.6707 49.8759 88.6421C49.9205 87.4989 50.426 86.4224 51.2772 85.6578C52.1001 84.9126 53.3896 84.4408 54.4862 84.4944C51.4431 86.2102 50.7023 88.3083 51.703 91.5988C51.359 91.5692 50.9222 91.5434 50.5897 91.4936Z" fill="#FDFEFE"/>
<path d="M49.8867 91.4231L50.0293 91.3878C50.1197 91.2776 49.9002 90.8739 49.833 90.7271C48.7017 88.2554 50.0181 85.3403 52.5292 84.3911C53.2512 84.1184 54.4366 84.0321 55.1268 84.2462C54.8352 84.3086 54.7603 84.3584 54.4873 84.4944C53.3906 84.4409 52.1012 84.9127 51.2783 85.6578C50.4271 86.4225 49.9216 87.4989 49.877 88.6422C49.8419 89.6708 50.1357 90.586 50.5907 91.4937C50.3555 91.4767 50.1207 91.4527 49.8867 91.4231Z" fill="#96B7DF"/>
<path d="M51.2214 79.0391C49.6523 77.7561 49.0655 75.6208 49.7581 73.716C50.4508 71.8106 52.2718 70.5515 54.2987 70.576C56.3257 70.6 58.1159 71.9026 58.7628 73.8237C60.312 74.807 60.3491 77.9602 59.3166 79.4454C57.8052 81.6198 54.6455 82.0575 52.4933 80.5817C51.9976 80.2416 51.3763 79.6476 51.2214 79.0391Z" fill="#96B7DF"/>
<path d="M58.762 73.8232C60.3113 74.8065 60.3484 77.9597 59.3159 79.4449C57.8045 81.6193 54.6448 82.0571 52.4926 80.5813C51.9968 80.2411 51.3756 79.6471 51.2207 79.0387C52.8668 80.3847 55.2052 80.4792 56.9543 79.2692C58.7033 78.0598 59.4405 75.8389 58.762 73.8232Z" fill="#C8D9EB"/>
<path d="M53.6344 71.034C56.0137 70.7071 58.2049 72.3782 58.5194 74.7591C58.8338 77.1401 57.1517 79.322 54.7691 79.6244C52.4039 79.9248 50.2407 78.2575 49.9284 75.8936C49.6162 73.5296 51.2723 71.3584 53.6344 71.034Z" fill="#FDFEFE"/>
<path d="M51.3492 65.5527C49.719 64.3124 49.0649 62.1683 49.725 60.2292C50.3851 58.2901 52.2114 56.9906 54.2597 57.0025C56.308 57.0145 58.1191 58.3352 58.7566 60.2818C60.3133 61.3384 60.3225 64.3868 59.2842 65.872C57.7107 68.1232 54.7224 68.4571 52.4658 67.0493C51.9964 66.745 51.4855 66.1183 51.3492 65.5527Z" fill="#96B7DF"/>
<path d="M58.7551 60.2817C60.3118 61.3384 60.321 64.3867 59.2827 65.8719C57.7092 68.1231 54.7209 68.457 52.4643 67.0492C51.9949 66.745 51.484 66.1182 51.3477 65.5526C53.0062 66.8142 55.2927 66.8508 56.9907 65.6427C58.6887 64.4346 59.4036 62.2622 58.7551 60.2817Z" fill="#C8D9EB"/>
<path d="M53.6215 57.4685C55.989 57.1388 58.1733 58.7971 58.4919 61.1661C58.8105 63.5355 57.1418 65.7118 54.7713 66.0191C52.4165 66.324 50.2578 64.6693 49.9413 62.3159C49.6249 59.9627 51.2697 57.7961 53.6215 57.4685Z" fill="#FDFEFE"/>
<path d="M51.3806 52.0309C49.6856 50.7728 49.019 48.5502 49.7419 46.567C50.4648 44.5837 52.4052 43.3114 54.5122 43.439C56.6192 43.5666 58.3918 45.0638 58.8701 47.1198L58.9547 47.1524L59.0024 47.1222C59.6026 47.5411 59.8494 48.307 59.9753 48.9973C60.7381 53.1794 55.8378 55.6254 52.5725 53.4131C52.1478 53.1254 51.5784 52.5132 51.3806 52.0309Z" fill="#96B7DF"/>
<path d="M58.8704 47.1201L58.955 47.1527L59.0026 47.1225C59.6029 47.5414 59.8496 48.3073 59.9755 48.9976C60.7384 53.1797 55.838 55.6257 52.5727 53.4134C52.1481 53.1257 51.5786 52.5135 51.3809 52.0312C52.9872 53.2236 55.1669 53.287 56.8399 52.19C58.5128 51.093 59.3236 49.0687 58.8704 47.1201Z" fill="#C8D9EB"/>
<path d="M53.9468 43.8696C56.3191 43.7332 58.3578 45.535 58.5138 47.9062C58.6698 50.2773 56.8849 52.3308 54.5151 52.5064C52.1174 52.6841 50.0345 50.8735 49.8767 48.4744C49.7188 46.0754 51.5466 44.0076 53.9468 43.8696Z" fill="#FDFEFE"/>
<path d="M34.3736 65.5156C32.7391 64.2589 32.1014 62.0912 32.7945 60.1492C33.4877 58.2072 35.3537 56.9334 37.4147 56.9953C39.4758 57.0572 41.262 58.4406 41.8374 60.4207C42.5183 61.0014 42.9404 61.9226 43.0168 62.8105C43.1268 64.0895 42.764 65.2579 41.9457 66.2469C41.206 67.1413 39.9186 67.7674 38.7712 67.8537C37.8024 67.9267 36.5564 67.7485 35.7499 67.1778C35.3983 66.9284 35.1003 66.6273 34.7291 66.3917L34.3736 65.5156Z" fill="#96B7DF"/>
<path d="M41.8369 60.4204C42.5177 61.0012 42.9399 61.9223 43.0163 62.8102C43.1263 64.0892 42.7635 65.2577 41.9452 66.2466C41.2055 67.141 39.918 67.7671 38.7706 67.8534C37.8018 67.9265 36.5558 67.7482 35.7494 67.1775C35.3977 66.9281 35.0998 66.627 34.7286 66.3914L34.373 65.5153C36.0028 66.7694 38.2538 66.833 39.952 65.6734C41.6501 64.5144 42.4107 62.3948 41.8369 60.4204Z" fill="#C8D9EB"/>
<path d="M34.3802 64.9485C33.0796 63.7807 32.6116 61.9439 33.1948 60.2961C33.778 58.6482 35.2973 57.5148 37.043 57.4251C38.7886 57.3355 40.416 58.3074 41.165 59.8868C42.0462 61.745 41.4942 63.9665 39.8457 65.1967C38.1974 66.4262 35.9104 66.3223 34.3802 64.9485Z" fill="#FDFEFE"/>
<path d="M41.1638 59.8867C42.0449 61.7449 41.4929 63.9665 39.8445 65.1966C38.1961 66.4262 35.9091 66.3222 34.3789 64.9485L34.5572 64.6524C34.7553 64.6234 35.199 64.8483 35.4178 64.927C37.9766 65.853 40.5671 64.1403 40.834 61.4626C40.8674 61.1275 40.818 60.1924 40.9042 59.9554L41.1638 59.8867Z" fill="#C8D9EB"/>
<path d="M34.4923 79.1829C32.8023 77.9616 32.1036 75.7828 32.7682 73.8069C33.4326 71.8303 35.3058 70.5164 37.3902 70.5643C39.4746 70.6121 41.2854 72.0111 41.8584 74.016C42.6305 74.7719 43.0177 75.5895 43.0299 76.6766C43.0613 79.4639 40.8907 81.4852 38.1334 81.3945C36.6452 81.3472 35.0568 80.655 34.4923 79.1829Z" fill="#96B7DF"/>
<path d="M41.8583 74.0161C42.6305 74.772 43.0176 75.5896 43.0298 76.6767C43.0612 79.464 40.8906 81.4853 38.1333 81.3946C36.6451 81.3473 35.0568 80.6551 34.4922 79.183C36.1367 80.3716 38.3537 80.3867 40.0147 79.2221C41.6758 78.0568 42.4159 75.9669 41.8583 74.0161Z" fill="#C8D9EB"/>
<path d="M34.1336 78.2861C32.9922 77.0836 32.6401 75.3338 33.2274 73.7837C33.8148 72.2329 35.2379 71.1558 36.8894 71.0116C38.541 70.8673 40.1293 71.6811 40.9766 73.1065C41.9987 74.8255 41.7068 77.0213 40.2711 78.4133C38.8354 79.8054 36.6317 80.0296 34.9452 78.955C34.6484 78.766 34.3758 78.5412 34.1336 78.2861Z" fill="#FDFEFE"/>
<path d="M40.9768 73.1069C41.9989 74.8259 41.7069 77.0217 40.2713 78.4137C38.8356 79.8057 36.6319 80.03 34.9453 78.9554C35.2752 78.7526 35.452 78.7362 35.8306 78.7116C38.2877 79.2162 40.7491 77.6887 40.9407 75.0407C40.9716 74.6142 40.6959 73.3753 40.9768 73.1069Z" fill="#C8D9EB"/>
<path d="M34.1348 78.2865C35.0318 78.1366 35.1033 78.6185 35.8317 78.7117C35.453 78.7362 35.2763 78.7526 34.9464 78.9554C34.6496 78.7665 34.377 78.5416 34.1348 78.2865Z" fill="#E4E7EE"/>
<path d="M34.4862 92.6768C32.8055 91.4579 32.1116 89.288 32.7732 87.3196C33.4347 85.3512 35.2982 84.0411 37.3742 84.0845C39.4502 84.128 41.2572 85.515 41.836 87.5092C42.4802 87.8972 42.713 88.6033 42.9002 89.2893C43.2113 90.4174 43.0352 91.8674 42.4111 92.8664C41.0625 95.0237 37.8592 95.4281 35.7694 94.1753C35.3103 93.9 34.5872 93.2191 34.4862 92.6768Z" fill="#96B7DF"/>
<path d="M41.8361 87.5088C42.4803 87.8968 42.7131 88.6029 42.9003 89.2888C43.2114 90.417 43.0353 91.8669 42.4111 92.8659C41.0626 95.0233 37.8593 95.4277 35.7695 94.1748C35.3104 93.8996 34.5872 93.2187 34.4863 92.6763C36.1287 93.8681 38.3468 93.8845 40.0066 92.7173C41.6665 91.5501 42.4015 89.4576 41.8361 87.5088Z" fill="#C8D9EB"/>
<path d="M34.3574 91.9988C33.1074 90.8588 32.6397 89.0926 33.1615 87.4838C33.6834 85.8745 35.0983 84.7187 36.7794 84.5297C38.4606 84.3401 40.0971 85.1514 40.9641 86.6039C42.0594 88.4394 41.6444 90.8008 39.9888 92.1525C38.3331 93.5043 35.9368 93.4388 34.3574 91.9988Z" fill="#FDFEFE"/>
<path d="M40.9641 86.604C42.0594 88.4395 41.6444 90.8009 39.9888 92.1526C38.3331 93.5044 35.9368 93.4389 34.3574 91.9989C35.008 91.8969 35.0069 92.1293 35.5798 92.2478C38.2001 92.7913 40.5792 91.3571 40.8848 88.6033C40.9501 88.0149 40.6913 87.1325 40.9641 86.604Z" fill="#C8D9EB"/>
<path d="M34.5023 52.0368C32.8141 50.8155 32.1207 48.6355 32.7933 46.6634C33.4659 44.6913 35.3468 43.3892 37.4295 43.454C39.5121 43.5188 41.3085 44.9353 41.8572 46.9454C42.2536 47.2105 42.5122 47.5558 42.6739 48.0053C43.7157 50.9016 42.3501 53.5698 39.298 54.1688C38.0178 54.4196 36.6906 54.1487 35.6113 53.4163C35.1822 53.1188 34.6103 52.5655 34.5023 52.0368Z" fill="#96B7DF"/>
<path d="M41.8568 46.9453C42.2532 47.2104 42.5119 47.5557 42.6735 48.0052C43.7153 50.9015 42.3497 53.5697 39.2976 54.1687C38.0175 54.4195 36.6902 54.1486 35.6109 53.4162C35.1818 53.1187 34.6099 52.5654 34.502 52.0367C36.1315 53.2154 38.3273 53.2382 39.9809 52.0935C41.6345 50.9488 42.3863 48.8855 41.8568 46.9453Z" fill="#C8D9EB"/>
<path d="M36.7648 43.8955C38.3094 43.7162 39.831 44.3826 40.7465 45.6397C41.662 46.8967 41.8295 48.5494 41.1848 49.9645C40.5401 51.3796 39.1831 52.3378 37.6339 52.4719C35.2866 52.6752 33.211 50.9561 32.9734 48.612C32.7359 46.2679 34.4244 44.1674 36.7648 43.8955Z" fill="#FDFEFE"/>
<path d="M45.6628 43.4287C45.8934 43.4552 45.9017 43.4411 46.0961 43.581C46.1691 43.8792 46.1528 46.7673 46.1536 47.1754L46.1471 57.0986L46.1333 79.9697L46.1291 87.401C46.1291 88.5739 46.1801 90.1536 46.112 91.2987C45.959 91.4071 45.9704 91.4159 45.7869 91.4279C45.5065 91.2383 45.5201 90.9158 45.5176 90.5914L45.5428 61.0605L45.5393 49.6537C45.5392 48.7743 45.4623 43.894 45.6628 43.4287Z" fill="#C8D9EB"/>
<path d="M78.6131 45.71C81.9577 45.8419 85.3056 45.8877 88.6528 45.8475C90.1519 45.825 91.6812 45.7374 93.1652 45.7211C93.1589 46.2064 93.1684 46.8307 93.135 47.3048C93.2975 48.3034 93.5073 48.6696 94.0748 49.5143L94.1403 49.5929C94.8388 50.4265 95.7969 50.9866 96.5515 51.7536C99.8445 55.1012 100.435 57.5993 100.542 62.0292C100.559 62.6703 100.6 64.133 100.542 64.727C100.697 67.2006 100.53 70.6403 100.547 73.1939C100.576 75.2473 100.585 77.3007 100.575 79.3541C100.577 80.224 100.629 81.8762 100.542 82.673C100.561 83.146 100.554 83.5435 100.539 84.0178L99.3809 84.1167L99.2675 84.1476C97.9712 84.2496 96.4809 84.3724 95.1802 84.4171C94.7595 84.4568 91.8179 84.6168 91.5105 84.5639L91.3329 84.5973C91.7278 85.3154 91.474 90.0559 91.4356 91.1342C91.4324 91.2211 91.1792 91.7427 91.1269 91.8894C90.7723 91.9701 90.2753 92.1357 90.012 92.3921C87.0037 91.075 84.8653 91.1487 81.7146 91.2848C81.1112 89.8474 80.5411 89.6099 79.3651 88.6537C79.2511 87.4796 79.3135 85.7538 79.3273 84.5293C77.8396 84.5053 76.3619 84.3504 74.8835 84.3334C75.0662 82.4292 74.607 81.3849 73.499 79.8877C73.0323 79.4152 72.6304 79.1123 72.0686 78.7709C71.6888 78.5951 71.576 78.5422 71.1641 78.4414L71.1704 62.0661C71.1225 57.3782 72.5221 53.6183 76.348 50.7163C77.5051 49.8388 78.4361 48.7949 78.5841 47.2987C78.5217 46.8996 78.5898 46.1415 78.6131 45.71Z" fill="#856874"/>
<path d="M99.3491 62.1762C99.7598 62.1391 100.132 62.0877 100.541 62.0288C100.558 62.67 100.599 64.1327 100.541 64.7267C100.696 67.2002 100.529 70.64 100.546 73.1935C100.575 75.247 100.584 77.3004 100.574 79.3538C100.576 80.2237 100.628 81.8759 100.541 82.6727C100.56 83.1457 100.553 83.5431 100.538 84.0175L99.3799 84.1163L99.2666 84.1472C97.9703 84.2493 96.48 84.3721 95.1792 84.4168C94.7585 84.4565 91.8169 84.6165 91.5096 84.5636L91.3319 84.5969C91.7269 85.315 91.473 90.0555 91.4346 91.1339C91.4314 91.2208 91.1782 91.7423 91.1259 91.8891C90.7713 91.9697 90.2743 92.1354 90.0111 92.3917C87.0027 91.0747 84.8643 91.1484 81.7136 91.2844C81.1102 89.847 80.5401 89.6095 79.3641 88.6534C79.2501 87.4793 79.3125 85.7534 79.3264 84.5289C77.8386 84.505 76.3609 84.35 74.8825 84.333C75.0652 82.4289 74.606 81.3845 73.498 79.8873C73.8798 79.721 77.4329 80.2476 78.1208 80.1859C78.2474 80.1745 79.2224 80.2501 79.3723 80.2759C79.293 78.6206 79.3415 76.4702 79.3547 74.7985C79.3887 72.1423 79.3742 69.4861 79.3106 66.8305L91.5228 66.8878C91.5234 66.2566 91.5599 63.2452 91.485 62.7825L91.3496 62.712C91.8497 62.5727 94.3755 62.5659 95.1049 62.5102C96.1045 62.4537 98.4011 62.3448 99.288 62.1482L99.3491 62.1762Z" fill="#C8D9EB"/>
<path d="M99.3491 62.1762C99.7598 62.1391 100.132 62.0877 100.541 62.0288C100.558 62.67 100.599 64.1327 100.541 64.7267C100.696 67.2002 100.529 70.64 100.547 73.1935C100.575 75.247 100.584 77.3004 100.574 79.3538C100.576 80.2237 100.628 81.8759 100.541 82.6727C100.56 83.1457 100.553 83.5431 100.538 84.0175L99.38 84.1163L99.2666 84.1472C97.9703 84.2493 96.48 84.3721 95.1793 84.4168C94.7585 84.4565 91.817 84.6165 91.5096 84.5636C91.5505 84.3431 91.5335 83.4178 91.5316 83.1457L91.5291 80.378L91.5909 80.3396C91.4957 80.1594 91.5247 68.0543 91.5228 66.8878C91.5235 66.2566 91.56 63.2452 91.485 62.7825L91.3496 62.712C91.8497 62.5727 94.3756 62.5659 95.105 62.5102C96.1046 62.4537 98.4011 62.3448 99.288 62.1482L99.3491 62.1762Z" fill="#A7CFEB"/>
<path d="M100.295 79.7518L100.448 79.7178C100.608 80.0863 100.46 82.0578 100.541 82.6726C100.561 83.1456 100.553 83.5431 100.539 84.0174L99.3801 84.1163L99.2668 84.1471C97.9705 84.2492 96.4802 84.372 95.1795 84.4167C94.7587 84.4564 91.8171 84.6164 91.5098 84.5635C91.5507 84.343 91.5337 83.4177 91.5318 83.1456L91.5293 80.3779L91.591 80.3395C92.0559 80.2708 93.0171 80.2557 93.5367 80.2261L97.3878 79.9848C97.9157 79.9477 98.9077 79.8841 99.3978 79.7631C99.7549 79.7367 99.9275 79.7247 100.295 79.7518Z" fill="#D7E8F4"/>
<path d="M100.295 79.7518L100.448 79.7178C100.608 80.0863 100.46 82.0578 100.541 82.6726C100.56 83.1456 100.553 83.5431 100.538 84.0174L99.38 84.1163C99.3435 83.9726 99.385 83.4983 99.3945 83.3232C99.4575 82.1535 99.402 80.9889 99.4247 79.8179C99.7636 79.8154 99.957 79.8236 100.295 79.7518Z" fill="#E4E7EE"/>
<path d="M99.3491 62.1762C99.7598 62.1391 100.132 62.0877 100.541 62.0288C100.558 62.67 100.599 64.1327 100.541 64.7267L100.532 64.8054C100.479 65.3597 100.655 65.9512 100.395 66.3033C100.238 66.3637 100.118 66.348 99.9494 66.3467C99.7189 66.3952 99.6206 66.3839 99.3894 66.3782C97.3864 66.4702 95.3097 66.7845 93.2865 66.8217C92.7354 66.8317 92.0633 66.9054 91.5228 66.8878C91.5235 66.2566 91.56 63.2452 91.485 62.7825L91.3496 62.712C91.8497 62.5727 94.3756 62.5659 95.105 62.5102C96.1046 62.4537 98.4011 62.3448 99.288 62.1482L99.3491 62.1762Z" fill="#D7E8F4"/>
<path d="M99.3477 62.1762C99.7583 62.1391 100.131 62.0877 100.539 62.0288C100.556 62.67 100.598 64.1327 100.539 64.7267L100.531 64.8054C100.477 65.3597 100.653 65.9512 100.393 66.3033C100.236 66.3637 100.116 66.348 99.9479 66.3467C99.7092 66.3291 99.5801 66.3631 99.4157 66.2466C99.2582 64.9906 99.5158 63.499 99.3477 62.1762Z" fill="#E4E7EE"/>
<path d="M100.541 64.7266C100.697 67.2001 100.529 70.6399 100.547 73.1935C100.575 75.2469 100.584 77.3003 100.574 79.3537C100.576 80.2236 100.628 81.8758 100.541 82.6726C100.46 82.0578 100.608 80.0863 100.449 79.7178L100.295 79.7518C99.9276 79.7247 99.755 79.7367 99.3979 79.7631C99.2587 75.8062 99.3909 71.8178 99.3443 67.8571C99.3387 67.3784 99.3412 66.8518 99.3897 66.3781C99.6208 66.3838 99.7191 66.3951 99.9496 66.3466C100.118 66.3479 100.238 66.3636 100.395 66.3032C100.655 65.9511 100.479 65.3596 100.532 64.8053L100.541 64.7266Z" fill="#C8D9EB"/>
<path d="M79.3263 84.5293C82.2969 84.6427 85.2699 84.6861 88.2423 84.6603C89.2741 84.6559 90.2983 84.6043 91.3319 84.5973C91.7269 85.3154 91.473 90.0559 91.4346 91.1342C91.4314 91.2212 91.1782 91.7427 91.1259 91.8895C90.7713 91.9701 90.2743 92.1358 90.0111 92.3921C87.0027 91.075 84.8643 91.1487 81.7136 91.2848C81.1102 89.8474 80.5401 89.6099 79.3641 88.6538C79.2501 87.4797 79.3125 85.7538 79.3263 84.5293Z" fill="#856874"/>
<path d="M73.498 79.8871C73.8798 79.7208 77.4329 80.2474 78.1208 80.1857C78.2474 80.1743 79.2224 80.2499 79.3723 80.2758C80.2346 80.3916 82.0739 80.4017 83.0149 80.4181C85.8532 80.4559 88.6915 80.4427 91.5291 80.3778L91.5316 83.1455C91.5335 83.4176 91.5505 84.3429 91.5096 84.5634L91.3319 84.5968C90.2983 84.6037 89.2741 84.6553 88.2423 84.6597C85.2699 84.6856 82.2969 84.6421 79.3264 84.5287C77.8386 84.5048 76.3609 84.3498 74.8825 84.3328C75.0652 82.4287 74.606 81.3843 73.498 79.8871Z" fill="#FDFEFE"/>
<path d="M72.0665 78.7705C72.2202 78.0902 72.1843 66.9363 72.0407 66.3643L71.926 66.3297L71.9141 66.2932C72.8381 66.2497 74.2654 66.5275 75.2228 66.6043C76.5891 66.7127 77.9402 66.7801 79.3095 66.8305C79.3731 69.486 79.3876 72.1423 79.3536 74.7985C79.3404 76.4702 79.2919 78.6206 79.3712 80.2759C79.2213 80.2501 78.2463 80.1745 78.1197 80.1859C77.4318 80.2476 73.8787 79.721 73.497 79.8873C73.0302 79.4149 72.6284 79.1119 72.0665 78.7705Z" fill="#D7E8F4"/>
<path d="M71.1704 62.0659C72.2619 62.1604 73.3529 62.2633 74.4432 62.3744C76.0205 62.494 77.6002 62.5783 79.1812 62.6273C82.616 62.8433 86.1452 62.7684 89.5856 62.7515C90.1638 62.7487 90.7736 62.7389 91.3505 62.7122L91.486 62.7827C91.5609 63.2454 91.5244 66.2568 91.5238 66.888L79.3116 66.8307C77.9422 66.7803 76.5911 66.7129 75.2249 66.6045C74.2675 66.5277 72.8402 66.2499 71.9161 66.2934L71.9281 66.3299L72.0427 66.3646C72.1864 66.9365 72.2223 78.0905 72.0686 78.7707C71.6888 78.595 71.576 78.5421 71.1641 78.4413L71.1704 62.0659Z" fill="#F6F9FA"/>
<path d="M92.2074 47.3601C92.5268 47.3332 92.8108 47.3084 93.1333 47.3047C93.2958 48.3034 93.5056 48.6695 94.0731 49.5143L94.1386 49.5929C94.8372 50.4264 95.7952 50.9865 96.5498 51.7536C99.8428 55.1011 100.433 57.5992 100.54 62.0291C100.131 62.088 99.7591 62.1394 99.3484 62.1765L99.2873 62.1485C98.4004 62.345 96.1039 62.4539 95.1042 62.5105C95.0916 59.527 95.103 57.3531 93.5894 54.6047C92.7875 53.1479 91.5353 51.6868 90.3656 50.5184C90.0633 50.2166 89.5758 49.5398 89.1562 49.4183C90.0072 49.3759 90.8802 49.4178 91.7331 49.4027C92.0789 49.3967 92.2502 49.5353 92.557 49.3475C92.2805 48.4004 92.1961 48.3318 92.2074 47.3601Z" fill="#755F6A"/>
<path d="M92.2949 47.462C92.6439 47.4596 92.9783 47.3837 93.1169 47.74C93.3884 48.4392 93.326 49.0537 94.0731 49.5139L94.1386 49.5925C94.8371 50.4261 95.7952 50.9862 96.5498 51.7532C99.8428 55.1007 100.433 57.5988 100.54 62.0287C100.131 62.0876 99.759 62.139 99.3483 62.1761L99.2873 62.1481C99.1852 59.6983 99.1323 58.1674 98.1365 55.8631C97.4033 54.165 96.5561 53.122 95.348 51.7243C95.0299 51.3558 93.6114 50.3848 93.5761 50.071C93.6649 50.0089 93.7512 49.9513 93.8463 49.898C93.6914 49.905 93.59 49.9393 93.4419 49.9789C93.4948 49.7306 93.6404 49.9256 93.8079 49.6957C92.4555 49.8144 92.3132 48.5337 92.2949 47.462Z" fill="#856874"/>
<path d="M78.6113 45.71C81.9559 45.8419 85.3038 45.8877 88.651 45.8475C90.1501 45.825 91.6794 45.7374 93.1634 45.7211C93.1571 46.2064 93.1666 46.8307 93.1332 47.3048C92.8107 47.3085 92.5266 47.3333 92.2073 47.3601C92.1959 48.3319 92.2803 48.4005 92.5569 49.3475C92.2501 49.5354 92.0788 49.3967 91.733 49.4028C90.8801 49.4178 90.0071 49.376 89.1561 49.4184L88.9898 49.3768C87.9764 49.4774 86.898 49.409 85.9003 49.4363C84.3772 49.46 82.8724 49.4803 81.4073 48.986C80.026 48.5201 79.4578 49.3555 79.563 47.5004C79.5385 47.3837 79.5611 47.444 79.4811 47.3249C79.1945 47.2523 78.8821 47.287 78.5823 47.2987C78.5199 46.8996 78.588 46.1415 78.6113 45.71Z" fill="#6C5964"/>
<path d="M79.563 47.5C79.9876 47.5782 80.6257 47.4906 81.0987 47.5098C83.3612 47.6015 85.7 47.4817 87.9468 47.6828C89.1039 47.7863 89.017 48.4465 88.9899 49.3764C87.9764 49.477 86.898 49.4086 85.9003 49.4359C84.3772 49.4596 82.8724 49.4799 81.4073 48.9856C80.026 48.5197 79.4578 49.3551 79.563 47.5Z" fill="#755F6A"/>
<path d="M77.0565 52.8599C78.145 53.4064 79.3373 53.8944 80.41 54.4553C80.4459 54.4804 80.4818 54.5054 80.5177 54.5304C79.9559 55.9065 79.2869 57.646 79.2926 59.1562C79.1074 59.3414 78.7893 58.995 78.4524 58.9647C78.1418 58.9246 77.6486 59.1134 77.3614 59.0768C76.5003 58.9671 75.57 58.381 74.7045 58.7417L74.6113 58.6535C74.9061 56.5217 75.4346 54.4211 77.0565 52.8599Z" fill="#B09EA6"/>
<path d="M74.442 62.3742C74.4445 61.4698 74.4118 59.4239 74.6121 58.6533L74.7053 58.7414C75.5708 58.3807 76.5011 58.9668 77.3621 59.0765C77.6494 59.1131 78.1426 58.9244 78.4531 58.9645C78.7901 58.9947 79.1082 59.3411 79.2934 59.156C79.1875 60.2827 79.1787 61.4959 79.18 62.627C77.599 62.578 76.0192 62.4937 74.442 62.3742Z" fill="#A08A93"/>
<path d="M79.6658 52.4309C77.6432 51.2937 80.5344 49.19 81.8609 50.1117C82.2319 50.3696 82.2483 50.7314 82.3283 51.1413C82.1714 51.4496 82.0473 51.7217 81.8263 51.9909C81.694 52.1725 81.282 52.7598 81.1472 52.8805L81.083 52.8388C81.0496 52.6024 81.061 52.5391 81.0817 52.3079L81.025 52.2849L80.9444 52.3212C80.4355 52.5482 80.21 52.5824 79.6658 52.4309Z" fill="#B09EA6"/>
<path d="M79.666 52.4307C79.69 52.4295 79.9394 52.4136 79.9627 52.4148C80.6304 52.4489 81.1576 51.9883 81.8265 51.9907C81.6942 52.1723 81.2823 52.7596 81.1475 52.8803L81.0833 52.8386C81.0499 52.6022 81.0612 52.5389 81.082 52.3077L81.0253 52.2847L80.9447 52.321C80.4357 52.548 80.2102 52.5822 79.666 52.4307Z" fill="#A08A93"/>
<path d="M76.1387 43.4719C76.1872 42.8687 76.1513 41.6919 76.1501 41.0436C76.1412 39.6087 76.1425 38.1738 76.1532 36.7389C76.1551 36.216 76.0959 35.2547 76.1494 34.7888C76.2143 34.2339 76.4971 33.7276 76.9361 33.3821C78.7313 31.97 84.993 32.5079 87.396 32.3943C88.0473 32.3636 89.605 32.454 90.2279 32.5331C91.6899 32.3813 95.4516 32.6345 95.4818 34.706C95.5234 37.5774 95.5605 40.4825 95.4698 43.3536C95.461 43.6431 95.2865 44.2174 95.0963 44.4492C94.617 45.0347 93.7477 45.161 93.0315 45.2173C90.5492 45.4125 88.0479 45.4132 85.5592 45.4101C82.9962 45.3961 80.4049 45.4139 77.8558 45.148C77.5276 45.1138 76.9985 44.8353 76.7434 44.6289C76.373 44.3169 76.2049 43.9469 76.1387 43.4719Z" fill="#E4E7EE"/>
<path d="M90.2279 32.5333C91.6898 32.3814 95.4515 32.6346 95.4817 34.7061C95.5233 37.5776 95.5605 40.4827 95.4698 43.3537C95.461 43.6433 95.2865 44.2176 95.0963 44.4494C94.6169 45.0348 93.7477 45.1612 93.0315 45.2175C90.5491 45.4126 88.0479 45.4134 85.5592 45.4102C82.9962 45.3963 80.4049 45.414 77.8557 45.1482C77.5276 45.1139 76.9985 44.8355 76.7434 44.6291C76.373 44.3171 76.2048 43.9471 76.1387 43.4721C76.5235 43.4451 76.664 43.4309 77.0255 43.5692C77.1118 43.6316 77.2 43.6922 77.2926 43.7446C77.6516 43.9466 78.0516 44.0398 78.4566 44.0911C79.7466 44.2547 86.8064 44.4432 87.6725 44.1639C87.8362 44.111 87.9043 44.0311 87.9704 43.8704C88.1839 43.3493 88.0636 42.4166 88.0561 41.8573C88.0422 40.8205 87.7745 35.4168 88.1801 34.6774C88.3244 34.414 88.4787 34.3385 88.7609 34.2582C89.3706 34.1707 90.8257 33.8105 90.808 33.0455C90.694 32.8268 90.6474 32.7954 90.449 32.6469L90.5397 32.6642L90.5334 32.6224L90.2279 32.5333Z" fill="#C8D9EB"/>
<path d="M76.1387 43.4719C76.1872 42.8687 76.1513 41.6919 76.1501 41.0436C76.1412 39.6087 76.1425 38.1738 76.1532 36.7389C76.1551 36.216 76.0959 35.2547 76.1494 34.7888C76.2143 34.2339 76.4971 33.7276 76.9361 33.3821C78.7313 31.97 84.993 32.5079 87.396 32.3943C88.0473 32.3636 89.605 32.454 90.2279 32.5331L90.5334 32.6222L90.5397 32.664L90.449 32.6468C90.6474 32.7952 90.694 32.8266 90.8081 33.0454C90.8257 33.8103 89.3707 34.1706 88.7609 34.258C86.5267 34.2692 84.2491 34.3725 82.0092 34.3086C80.6858 34.2709 79.5917 34.109 78.2299 34.1301C77.6933 34.4145 77.3915 34.7906 77.0879 35.3113C77.1005 36.9765 77.0577 38.5985 77.0949 40.2753C77.1119 41.05 77.1862 42.8153 77.1352 43.4997L77.0256 43.5691C76.664 43.4307 76.5236 43.445 76.1387 43.4719Z" fill="#FDFEFE"/>
<path d="M56.1076 102.519C55.731 102.489 55.3547 102.456 54.9785 102.421L51.3436 102.057C49.114 101.832 47.3463 101.888 45.7451 99.9857C44.8897 98.9697 44.5319 97.5399 44.6692 96.2253C44.7954 94.9221 45.4459 93.7266 46.4713 92.9128C48.4287 91.3614 50.6081 91.9314 52.9023 92.1878L56.9483 92.6394C58.4739 92.7912 59.9984 92.9537 61.5216 93.1269C62.8023 93.2712 64.3589 93.3367 65.5349 93.7965C66.3336 94.114 67.0372 94.6317 67.5782 95.3C68.0173 95.8373 68.2453 96.35 68.4639 97.0045C69.1183 99.8295 67.7974 102.462 64.8823 103.103C63.4475 103.419 61.8852 103.08 60.4283 102.939L56.1076 102.519Z" fill="#FDFEFE"/>
<path d="M56.1076 102.519C55.731 102.489 55.3547 102.456 54.9785 102.421L51.3436 102.057C49.114 101.832 47.3463 101.888 45.7451 99.9857C44.8897 98.9697 44.5319 97.5399 44.6692 96.2253C44.7954 94.9221 45.4459 93.7266 46.4713 92.9128C48.4287 91.3614 50.6081 91.9314 52.9023 92.1878L56.9483 92.6394C56.972 93.508 56.8777 94.165 56.7639 95.0204C56.6548 96.1699 56.3936 98.2479 56.3823 99.3445L56.3361 99.4081C56.3048 99.8283 56.2746 100.563 56.2174 100.954L56.1076 102.519Z" fill="#9CC8ED"/>
<path d="M46.1094 96.4635C47.3458 97.0197 49.004 94.2595 49.7419 94.2627C50.9156 94.2677 52.6786 94.5921 53.9356 94.7118C54.6718 94.822 56.0827 95.0261 56.7658 95.0204C56.6567 96.17 56.3955 98.248 56.3842 99.3446L56.338 99.4082C56.2257 99.2759 56.207 99.2646 56.0141 99.2533C54.5282 99.1657 53.0652 99.0145 51.587 98.8382C49.8208 98.6272 46.7649 98.522 46.1094 96.4635Z" fill="#A7CFEB"/>
<path d="M56.2179 100.955C54.5474 100.994 52.7816 100.602 51.1072 100.418C49.3683 100.279 48.0813 100.209 46.5697 99.2854C45.6817 98.7431 44.4342 95.7152 45.9058 95.9987L46.108 96.4635C46.7635 98.522 49.8194 98.6272 51.5857 98.8382C53.0638 99.0145 54.5268 99.1657 56.0127 99.2533C56.2057 99.2646 56.2244 99.2759 56.3367 99.4082C56.3054 99.8283 56.2751 100.563 56.2179 100.955Z" fill="#96B7DF"/>
<path d="M45.9059 95.9984C45.5622 95.0353 46.5559 93.8165 47.346 93.3573C47.8035 93.0921 48.3072 92.9164 48.8304 92.8396C49.7987 92.7054 52.9577 93.0216 53.9297 93.2748C54.114 93.4367 54.2843 93.642 54.4479 93.8272C54.3937 94.3443 54.4812 94.6253 53.9343 94.7116C52.6773 94.5919 50.9143 94.2675 49.7406 94.2625C49.0027 94.2593 47.3445 97.0194 46.1081 96.4633L45.9059 95.9984Z" fill="#C8D9EB"/>
<path d="M68.4636 97.0044C69.1181 99.8294 67.7972 102.462 64.8821 103.103C63.4473 103.418 61.885 103.08 60.428 102.939L56.1074 102.519L56.2171 100.954C56.2743 100.563 56.3046 99.8282 56.3359 99.408L56.382 99.3444C56.8116 99.311 58.1876 99.4805 58.6694 99.5302C60.4252 99.7123 62.4905 100.103 64.2441 100.036C65.6833 99.9951 67.0143 99.2613 67.8168 98.0664C68.0139 97.7659 68.0901 97.4516 68.2829 97.2091C68.315 97.1694 68.3799 97.1203 68.4636 97.0044Z" fill="#C8D9EB"/>
<path d="M65.2512 92.0946C65.2594 85.8638 81.4864 86.4874 81.4726 92.349C81.47 92.5286 81.4612 92.7087 81.4455 92.8876C81.4442 94.308 81.6199 96.476 80.4641 97.4574C77.4734 99.9964 72.7292 99.9045 69.1256 99.0245C69.1514 97.4637 69.0317 96.5157 68.0957 95.2068C67.5351 94.4421 66.9638 94.0661 66.1954 93.554C65.8313 93.3827 65.5888 93.3008 65.209 93.1723C65.2424 92.8863 65.243 92.3994 65.2512 92.0946Z" fill="#FDFEFE"/>
<path d="M68.0977 95.2069C68.7578 95.1647 69.7725 95.5987 70.5114 95.7152C71.9047 95.9338 73.3937 96.0302 74.8053 95.9262C76.6206 95.7921 78.7843 95.3083 80.2519 94.1745C80.5738 93.9257 81.1621 93.2184 81.4474 92.8877C81.4461 94.3081 81.6219 96.4761 80.466 97.4575C77.4754 99.9965 72.7311 99.9046 69.1275 99.0246C69.1533 97.4638 69.0337 96.5158 68.0977 95.2069Z" fill="#C8D9EB"/>
<path d="M65.2512 92.0947C65.4578 92.3706 66.0222 93.2499 66.1954 93.5542C65.8313 93.3828 65.5888 93.301 65.209 93.1725C65.2424 92.8865 65.243 92.3996 65.2512 92.0947Z" fill="#C8D9EB"/>
<path d="M99.3806 84.1165L100.539 84.0176L100.526 89.9177C100.521 92.0335 100.78 94.3351 99.1797 95.9942C97.4784 97.7591 94.4694 97.3295 92.2169 97.3012C92.2132 96.4993 92.2245 95.6074 92.1231 94.8169C91.7949 93.7398 90.9238 93.0035 90.0117 92.3919C90.275 92.1355 90.772 91.9698 91.1266 91.8892C91.1789 91.7425 91.4321 91.2209 91.4353 91.134C91.4737 90.0556 91.7275 85.3151 91.3326 84.5971L91.5102 84.5637C91.8176 84.6166 94.7591 84.4566 95.1799 84.4169C96.4806 84.3722 97.9709 84.2494 99.2672 84.1473L99.3806 84.1165Z" fill="#6C5964"/>
<path d="M99.3786 84.1165L100.537 84.0176L100.524 89.9177C100.519 92.0335 100.778 94.3351 99.1777 95.9942C97.4764 97.7591 94.4674 97.3295 92.2149 97.3012C92.2112 96.4993 92.2225 95.6074 92.1211 94.8169C93.8319 95.0531 96.1813 94.8245 97.4776 93.5534C99.2728 91.7922 99.2633 89.4169 99.2558 87.0813C99.2495 86.1038 99.2526 85.1255 99.2652 84.1473L99.3786 84.1165Z" fill="#856874"/>
<path d="M91.5086 84.5638C91.816 84.6167 94.7575 84.4567 95.1783 84.417C95.0013 84.9108 95.1386 85.8903 95.1046 86.4528C94.9509 89.0057 93.4814 90.9753 91.125 91.8893C91.1773 91.7425 91.4305 91.221 91.4336 91.1341C91.4721 90.0557 91.7259 85.3152 91.331 84.5971L91.5086 84.5638Z" fill="#755F6A"/>
<path d="M81.8796 91.7183C82.2538 91.6874 82.6279 91.6616 83.0027 91.6396C85.492 91.4922 88.8493 91.7794 90.8069 93.516C91.0028 93.6867 91.0513 93.7383 91.2157 93.9399C91.7618 94.6542 91.7896 94.8287 91.7763 95.708L91.7757 95.7584C91.7839 96.4204 91.8551 97.8748 91.7662 98.4814C91.3921 101.041 86.7058 101.647 84.7714 101.684C82.878 101.72 81.0337 101.488 79.362 100.818C78.5236 100.524 77.975 100.205 77.3652 99.5736C78.78 99.0791 79.4338 98.8416 80.6375 97.9422C82.2134 96.4884 81.5854 95.7949 81.8727 94.0356V94.0004C81.8947 93.1066 81.9281 92.6146 81.8796 91.7183Z" fill="#D7E8F4"/>
<path d="M91.7757 95.7583C91.7839 96.4203 91.8551 97.8747 91.7662 98.4813C91.3921 101.04 86.7058 101.647 84.7714 101.684C82.878 101.72 81.0337 101.488 79.362 100.818C78.5236 100.524 77.975 100.205 77.3652 99.5735C78.78 99.079 79.4338 98.8416 80.6375 97.9421C80.9801 98.0971 81.5521 98.1991 81.935 98.2778L82.1152 98.32C82.4541 98.3364 82.8887 98.412 83.2546 98.4397C84.2939 98.5197 85.3377 98.4996 86.3732 98.3811C88.7441 98.0895 90.32 97.6278 91.7757 95.7583Z" fill="#A7CFEB"/>
<path d="M80.6375 97.9424C80.9801 98.0973 81.5521 98.1994 81.935 98.2781C81.2585 100.269 79.5774 100.451 79.362 100.818C78.5236 100.524 77.975 100.206 77.3652 99.5738C78.78 99.0793 79.4338 98.8419 80.6375 97.9424Z" fill="#96B7DF"/>
<path d="M81.88 91.7183C82.2541 91.6874 82.6283 91.6616 83.0031 91.6396C85.4924 91.4922 88.8496 91.7794 90.8073 93.516C90.2234 93.5009 89.6704 93.2779 89.1016 93.3617C88.3747 93.4687 87.5918 93.7131 86.885 93.8895C85.8545 94.1471 84.3535 94.84 83.2915 94.5692C82.8903 94.3474 82.3209 94.0917 81.873 94.0004C81.8951 93.1066 81.9285 92.6146 81.88 91.7183Z" fill="#D7E8F4"/>
<path d="M83.2924 94.5695C84.3544 94.8404 85.8554 94.1475 86.8859 93.8899C87.5926 93.7135 88.3755 93.4691 89.1024 93.362C89.6712 93.2783 90.2242 93.5012 90.8081 93.5164C91.004 93.6871 91.0525 93.7387 91.2169 93.9403C90.068 94.4297 88.3969 94.0335 87.3501 94.3749C85.8163 94.8756 84.2473 94.972 82.7652 95.3732C82.716 96.2085 82.6285 96.8169 82.3161 97.5948C82.2537 97.7511 82.0421 98.1781 82.1164 98.3205L81.9362 98.2783C81.5533 98.1995 80.9813 98.0975 80.6387 97.9425C82.2146 96.4888 81.5866 95.7953 81.8739 94.036V94.0007C82.3217 94.0921 82.8911 94.3478 83.2924 94.5695Z" fill="#A7CFEB"/>
<path d="M81.873 94.0005C82.3209 94.0918 82.8903 94.3476 83.2915 94.5693C83.0081 94.6776 82.2957 94.7809 82.0343 94.5863C81.8623 94.4578 81.8945 94.2392 81.873 94.0358V94.0005Z" fill="#C8D9EB"/>
<path d="M61.3009 81.9741C61.3683 82.1121 61.4659 82.284 61.4996 82.427C61.6321 82.6764 62.3053 83.9242 62.4489 84.0956L63.7187 86.7442C63.8106 86.937 64.2307 87.8522 64.3265 87.9889C64.5658 88.5753 64.974 89.6587 65.2934 90.1601C65.151 90.4101 64.9772 90.8296 64.8543 91.1024C63.8623 91.6447 62.6964 92.0277 61.6752 92.6531C60.3978 92.5832 59.1607 92.4081 57.8907 92.2733C56.0154 92.0894 54.1427 91.8803 52.2731 91.6453C51.7301 90.3106 51.504 89.1428 51.9897 87.7438C52.7723 85.4882 55.3879 84.6631 57.3625 83.7787C58.6825 83.1929 59.9954 82.5914 61.3009 81.9741Z" fill="#EFF1F6"/>
<path d="M61.3008 81.9742C62.9235 81.1667 64.6073 80.4468 66.2437 79.6651C66.9467 79.3293 67.678 78.9766 68.4382 78.7984C69.1349 78.6333 69.8574 78.6144 70.5616 78.7423C71.7602 78.9489 72.6383 79.4925 73.3456 80.4921C74.1664 81.3758 74.453 82.5241 74.4089 83.7014C74.3528 85.1715 73.8275 86.0798 72.9312 87.1953C69.6697 87.4152 67.5526 87.6394 65.2932 90.1602C64.9739 89.6588 64.5657 88.5754 64.3264 87.989C64.2306 87.8523 63.8105 86.9371 63.7185 86.7443L62.4488 84.0957C62.3051 83.9243 61.632 82.6765 61.4994 82.4271C61.4658 82.2841 61.3682 82.1122 61.3008 81.9742Z" fill="#96B7DF"/>
<path d="M73.3455 80.4922C74.1662 81.3759 74.4528 82.5242 74.4087 83.7014C74.3526 85.1716 73.8273 86.0799 72.931 87.1954C69.6695 87.4152 67.5524 87.6395 65.293 90.1603C64.9737 89.6589 64.5655 88.5755 64.3262 87.9891C64.4761 87.8247 65.0934 87.6495 65.3863 87.5072C67.2161 86.6146 69.5599 85.8462 71.2328 84.7533C71.7059 84.4441 72.5386 83.0539 72.8982 82.5544C72.9159 81.9252 72.8794 81.1366 72.8649 80.4953C73.0557 80.6119 73.2755 80.7914 73.4714 80.9268C73.5124 80.7971 73.4135 80.6572 73.3455 80.4922Z" fill="#67A5DF"/>
<path d="M61.5 82.4272L61.6956 82.5626C61.9577 82.5771 62.4098 82.5059 62.6437 82.39C64.3742 81.5346 66.112 80.6855 67.8599 79.8667C68.2668 80.0494 68.6448 80.5155 68.7197 80.9558C67.8895 81.5812 67.0064 81.8811 66.0805 82.3503C64.8629 82.9682 63.7103 83.561 62.4494 84.0957C62.3057 83.9244 61.6325 82.6766 61.5 82.4272Z" fill="#A7CFEB"/>
<path d="M67.8594 79.8665C68.607 79.8023 69.4335 79.1346 70.2939 79.6883C70.6485 79.9163 70.5433 80.3559 70.2926 80.5978C70.0148 80.9128 69.0939 81.0583 68.7192 80.9556C68.6442 80.5153 68.2663 80.0492 67.8594 79.8665Z" fill="#A7CFEB"/>
<path d="M74.8828 84.333C76.3611 84.35 77.8388 84.505 79.3266 84.5289C79.3127 85.7534 79.2504 87.4793 79.3644 88.6534C77.9963 88.0065 76.3435 87.512 74.8311 87.3546C74.5458 87.3684 73.7616 87.3136 73.4473 87.3023C74.1156 86.3575 74.2781 86.1773 74.7127 85.0901L74.8828 84.333Z" fill="#A08A93"/>
<path d="M74.7127 85.0903C74.7656 85.5653 74.7492 87.145 74.8311 87.3548C74.5458 87.3686 73.7616 87.3138 73.4473 87.3025C74.1156 86.3577 74.2781 86.1775 74.7127 85.0903Z" fill="#856874"/>
<path d="M64.7496 91.7144C64.7975 92.1118 64.8208 92.5634 64.6363 92.9212C64.4385 93.0478 64.446 92.9911 64.133 92.9401C64.0517 92.7568 64.0983 92.2157 64.1078 91.994L64.7496 91.7144Z" fill="#FDFEFE"/>
<path d="M63.3531 92.3374L63.4369 92.3481L63.5137 92.4779C63.5056 92.6851 63.5408 92.5988 63.4205 92.7519C63.122 92.8709 62.9774 92.8186 62.6591 92.772L62.5332 92.7538C62.648 92.607 63.1516 92.4237 63.3531 92.3374Z" fill="#E4E7EE"/>
</g>
<defs>
<clipPath id="clip0_13082_10673">
<rect width="129" height="129" fill="white"/>
</clipPath>
</defs>
</svg>
