<svg width="139" height="34" viewBox="0 0 139 34" fill="none" xmlns="http://www.w3.org/2000/svg">
<g clip-path="url(#clip0_2891_5297)">
<path d="M132.126 19.669C132.126 12.0467 129.586 7.25257 125.343 7.25257C121.101 7.25257 118.659 12.0014 118.659 19.6236C118.659 27.2458 121.298 32.1307 125.442 32.1307C129.586 32.1307 132.126 27.3366 132.126 19.669ZM111.785 19.669C111.785 11.6006 117.343 6.80643 125.343 6.80643C133.344 6.80643 139 11.6006 139 19.7597C139 27.9188 133.487 32.5769 125.442 32.5769C117.396 32.5769 111.785 27.7827 111.785 19.669ZM94.0379 16.4401C94.0379 11.7745 92.9036 9.7177 90.3175 9.62696V9.18082L100.208 6.48884L100.775 6.84424V13.2944C101.388 10.8293 103.838 6.52665 108.549 6.52665C111.611 6.52665 113.63 8.36415 113.63 10.4285C113.63 11.9938 112.451 13.4759 110.848 13.4759C108.118 13.4759 107.596 9.35474 105.199 9.35474C102.938 9.35474 100.775 12.9844 100.775 16.0318L100.821 27.5483C100.821 29.2043 101.101 31.987 104.496 31.987V32.4332H90.3704V31.987C93.8564 31.987 94.0454 28.985 94.0454 27.4197V16.4401H94.0379ZM76.5702 9.98993V9.54378L86.461 6.8518L87.0281 7.2072V23.2532C87.0281 27.9188 88.1548 29.9756 90.7939 30.0664V30.5125L80.9031 33.2045L80.336 32.8491L80.3814 20.7049C79.4361 28.9548 75.8594 32.8491 70.914 32.8491C66.8685 32.8491 64.1841 30.2478 64.1841 25.8167V16.8484C64.1841 12.1828 63.1481 10.126 60.6074 10.0353V9.58915L70.4982 6.89717L71.0653 7.25257V22.0433C71.0653 26.9736 72.381 30.1571 74.7403 30.1571C78.6951 30.1571 80.1999 20.7881 80.1999 16.8031C80.1999 12.1375 79.1639 10.0807 76.5778 9.98993H76.5702ZM49.3026 7.69872H46.5728V7.25257C50.3915 6.76106 54.5807 4.3413 55.7528 0.704102L56.2216 0.840213V7.24501H59.942V7.69115H56.2216V26.3838C56.2216 28.8943 56.5997 30.1042 58.0137 30.1042C59.6168 30.1042 60.5545 28.6221 60.5545 27.2383C60.6452 27.0568 60.9779 27.0568 61.0762 27.2383C61.0762 29.7488 59.095 32.6147 55.1402 32.6147C51.6543 32.6147 49.3026 30.4142 49.3026 26.6106V7.69872ZM33.06 17.5139C37.8617 17.3778 40.4024 15.6764 40.4024 11.8199C40.4024 8.95397 38.9884 7.33575 36.9618 7.33575C33.6649 7.33575 31.3586 11.7291 31.1241 17.5517L33.0524 17.5063L33.06 17.5139ZM39.0867 29.9756C43.9337 29.9756 46.1493 26.0738 46.3384 23.9262C46.3384 23.7069 46.8072 23.654 46.8072 23.9262C46.4291 27.1551 43.2759 32.7962 35.699 32.7962C28.7271 32.7962 24.1598 28.0474 24.1598 20.5159C24.1598 12.3568 29.4303 6.79887 37.2945 6.79887C42.5651 6.79887 46.4291 9.30937 46.4291 12.6668C46.4291 16.2964 42.0055 18.0432 33.1053 18.0432H31.1241V18.6254C31.1241 25.8847 34.1866 29.9605 39.0791 29.9605L39.0867 29.9756ZM23.2146 13.4381C23.2146 15.0034 22.413 16.7577 20.2957 16.7577C18.5036 16.7577 17.4223 15.5024 17.3769 13.3095C17.2861 10.9351 18.3675 7.21476 14.1253 7.21476C7.5315 7.21476 6.96437 16.183 6.96437 19.0035C6.96437 25.9074 10.3596 29.9832 15.7209 29.9832C21.0821 29.9832 23.4414 26.0359 23.6305 23.8884C23.6305 23.6691 24.1522 23.6162 24.1522 23.8884C23.7741 27.1173 20.3335 32.8037 12.2425 32.8037C4.85464 32.8037 0 28.0549 0 20.7049C0 12.6743 5.7923 6.76106 13.5582 6.76106C19.2068 6.76106 23.2146 9.94456 23.2146 13.4381Z" fill="#04084A"/>
<g clip-path="url(#clip1_2891_5297)">
<path d="M138.775 6.62409C138.79 4.42362 138.276 2.13997 137.807 0L135.644 0.589816C132.521 1.47454 129.406 2.80541 127.039 4.99831C129.565 5.52007 132.181 5.36884 134.692 4.88489C135.402 7.22147 136.469 9.49755 138.117 11.3729C138.631 9.83027 138.775 8.21206 138.767 6.62409H138.775Z" fill="#0073FE"/>
<path d="M137.626 0C137.055 0.159887 135.692 0.532957 135.692 0.532957C132.557 1.41614 129.421 2.75615 127.039 4.96411C129.581 5.48946 132.214 5.33718 134.741 4.84991C134.741 4.86513 134.749 4.87275 134.749 4.88798C135.586 3.03785 136.682 1.32478 137.626 0.00761367V0Z" fill="#04084A"/>
</g>
</g>
<defs>
<clipPath id="clip0_2891_5297">
<rect width="139" height="33.2036" fill="white"/>
</clipPath>
<clipPath id="clip1_2891_5297">
<rect width="11.7358" height="11.3729" fill="white" transform="translate(127.038)"/>
</clipPath>
</defs>
</svg>
