<svg width="621" height="179" viewBox="0 0 621 179" fill="none" xmlns="http://www.w3.org/2000/svg">
<path d="M83.7395 0H25.7697V49.4681C25.7697 50.5565 26.6559 51.4388 27.7491 51.4388H37.7797C38.8729 51.4388 39.7591 50.5565 39.7591 49.4681V13.9312H83.737C97.1861 13.9312 107.919 25.4919 106.54 39.1315C105.412 50.1518 96.0147 58.4271 85.0726 59.4652C84.2798 59.5482 83.4845 59.5909 82.6918 59.5909H81.6895L71.6235 38.5081L69.9117 34.8908C67.3643 29.6094 59.6791 30.1499 57.9244 35.7229L53.289 50.4434L45.4372 75.2264L39.0118 61.71C38.3958 60.4154 37.088 59.5909 35.6489 59.5909H1.97937C0.886173 59.5909 0 60.4733 0 61.5617V71.5488C0 72.6373 0.886173 73.5196 1.97937 73.5196H29.1503L39.2567 94.7683L41.0518 98.5113C43.5563 103.793 51.2844 103.252 53.0391 97.6792L60.8909 72.6448L65.4859 58.0902L72.0501 71.7901C72.5551 72.8459 73.6256 73.5196 74.8021 73.5196H85.0322C85.0473 73.5045 85.0574 73.4945 85.0751 73.4769C104.831 72.7705 120.658 56.5518 120.658 36.7585C120.658 16.9653 104.122 0 83.7395 0Z" fill="url(#paint0_linear_10450_4902)"/>
<path style="mix-blend-mode:multiply" d="M45.4386 75.2234L42.722 83.8104C41.4874 87.7167 36.0795 88.0863 34.3173 84.386L29.1492 73.5191H22.9258V59.5879H35.6478C37.0869 59.5879 38.3947 60.4124 39.0107 61.707L45.4361 75.2234H45.4386Z" fill="url(#paint1_linear_10450_4902)"/>
<path style="mix-blend-mode:multiply" d="M85.0789 59.4654V69.0176C83.3116 70.7773 82.3219 71.7627 80.5546 73.5223H75.7375C73.9929 73.5223 72.4048 72.5243 71.655 70.9583L65.4922 58.0954L68.1886 49.4934C69.4156 45.582 74.826 45.1999 76.5933 48.9026L81.6983 59.5936H82.7006C83.4934 59.5936 84.2886 59.5509 85.0814 59.4679L85.0789 59.4654Z" fill="url(#paint2_linear_10450_4902)"/>
<path d="M229.303 84.8936H134.011V86.7939H229.303V84.8936Z" fill="url(#paint3_linear_10450_4902)"/>
<path d="M213.4 48.9592H213.329C213.128 50.7239 212.499 52.3628 211.552 53.768C209.595 56.6689 206.268 58.5768 202.493 58.5768C198.719 58.5768 195.394 56.6689 193.435 53.768C192.488 52.3628 191.859 50.7239 191.657 48.9592H191.587V22.0244H181.93V47.7174C181.93 48.1347 181.942 48.5495 181.97 48.9592C182.066 50.6233 182.366 52.2346 182.844 53.768C183.374 55.4774 184.121 57.0912 185.058 58.5768C186.711 61.2037 188.946 63.4309 191.587 65.0799C194.748 67.0532 198.487 68.1944 202.493 68.1944C206.5 68.1944 210.239 67.0532 213.4 65.0799C216.041 63.4334 218.278 61.2062 219.932 58.5768C220.868 57.0912 221.616 55.4774 222.146 53.768C222.623 52.2346 222.923 50.6233 223.019 48.9592C223.047 48.5495 223.06 48.1347 223.06 47.7174V22.0244H213.4V48.9592Z" fill="black"/>
<path d="M166.431 13.0179C164.938 12.0853 163.318 11.3412 161.601 10.8133C160.061 10.3382 158.442 10.0391 156.771 9.94354C156.359 9.91589 155.943 9.90332 155.524 9.90332H134.011V68.1946H143.67V50.8548H155.524C155.943 50.8548 156.359 50.8422 156.771 50.8146C158.442 50.719 160.061 50.4199 161.601 49.9448C163.318 49.4169 164.938 48.6729 166.431 47.7403C169.069 46.0938 171.306 43.8691 172.962 41.2397C174.944 38.0925 176.09 34.3696 176.09 30.3803C176.09 26.391 174.944 22.6681 172.962 19.5209C171.308 16.8915 169.071 14.6644 166.431 13.0179ZM161.601 39.3996C160.189 40.3423 158.543 40.9682 156.771 41.1693V41.2397H143.67V19.5209H156.771V19.5913C158.543 19.7924 160.189 20.4183 161.601 21.361C164.514 23.3091 166.431 26.6223 166.431 30.3803C166.431 34.1384 164.514 37.449 161.601 39.3996Z" fill="black"/>
<path d="M240.571 9.90332H230.914V68.1946H240.571V9.90332Z" fill="black"/>
<path d="M330.997 45.1082C330.997 43.8111 330.889 42.5391 330.682 41.2998C329.659 35.1638 326.205 29.8447 321.338 26.3581C317.533 23.6307 312.862 22.0244 307.813 22.0244C302.763 22.0244 298.093 23.6307 294.286 26.3606C289.418 29.8447 285.964 35.1638 284.942 41.2998C284.735 42.5391 284.626 43.8111 284.626 45.1082C284.626 46.4053 284.737 47.7074 284.949 48.9592C285.229 50.6309 285.691 52.2397 286.315 53.768C287.009 55.4849 287.908 57.0962 288.981 58.5768C290.448 60.6105 292.243 62.3977 294.286 63.8582C298.093 66.5882 302.763 68.1944 307.813 68.1944C312.862 68.1944 317.533 66.5882 321.338 63.8607C323.383 62.3977 325.175 60.6105 326.642 58.5768C327.715 57.0962 328.614 55.4849 329.308 53.768H318.172C315.69 56.7091 311.971 58.5768 307.813 58.5768C303.655 58.5768 299.933 56.7091 297.452 53.768C296.278 52.3779 295.381 50.7465 294.849 48.9592H330.674C330.886 47.7074 330.997 46.4203 330.997 45.1082ZM294.833 41.2998C296.485 35.7168 301.67 31.642 307.813 31.642C313.956 31.642 319.139 35.7168 320.79 41.2998H294.833Z" fill="black"/>
<path d="M278.716 47.3792C277.353 45.6271 275.697 44.2923 273.798 43.4125C271.975 42.5679 269.594 41.7132 266.729 40.8736C264.666 40.2578 263.053 39.7098 261.934 39.2422C260.877 38.8023 259.985 38.2241 259.281 37.5228C258.645 36.8893 258.334 36.1076 258.334 35.1322C258.334 33.6742 258.753 32.6084 259.617 31.8719C260.5 31.1178 261.725 30.7357 263.252 30.7357C265.035 30.7357 266.474 31.1731 267.527 32.0378C268.564 32.89 269.105 33.9357 269.175 35.2353L269.213 35.9241H280.37L280.312 35.1398C280.004 31.0248 278.335 27.7669 275.351 25.4568C272.407 23.1768 268.547 22.0205 263.878 22.0205C260.776 22.0205 257.973 22.5559 255.544 23.6142C253.08 24.6876 251.136 26.2587 249.765 28.2848C248.389 30.3159 247.693 32.7266 247.693 35.4464C247.693 38.3523 248.389 40.7203 249.76 42.49C251.103 44.2244 252.739 45.5391 254.62 46.3963C256.426 47.2208 258.794 48.0655 261.667 48.905C263.724 49.4807 265.358 50.0086 266.519 50.4736C267.607 50.911 268.526 51.5168 269.246 52.2684C269.913 52.9698 270.238 53.8471 270.238 54.9556C270.238 56.3256 269.748 57.4015 268.741 58.2411C267.711 59.1033 266.242 59.5407 264.376 59.5407C262.51 59.5407 261.134 59.0782 260.127 58.1657C259.112 57.2482 258.564 56.0164 258.45 54.4026L258.402 53.7239H247.554L247.566 54.4655C247.609 57.2733 248.397 59.7494 249.904 61.8232C251.399 63.882 253.456 65.4782 256.019 66.5692C258.546 67.645 261.422 68.1905 264.565 68.1905C267.89 68.1905 270.811 67.5646 273.25 66.3278C275.707 65.0835 277.603 63.3817 278.883 61.2702C280.16 59.1637 280.809 56.8485 280.809 54.39C280.809 51.5294 280.102 49.169 278.709 47.3767L278.716 47.3792Z" fill="black"/>
<path d="M312.055 91.8779V79.8244H313.345L313.716 81.305C313.716 81.305 315.041 79.294 318.533 79.8244V81.7902H317.367C316.273 81.7902 315.433 82.1019 314.872 82.7178C314.314 83.3286 314.029 84.2285 314.029 85.3924V91.8779H312.055Z" fill="black"/>
<path d="M324.828 91.8722C323.263 91.842 321.786 91.2136 320.67 90.1025C319.554 88.9914 318.92 87.5184 318.893 85.9624C318.862 84.331 319.478 82.79 320.625 81.6262C321.773 80.4623 323.306 79.8213 324.944 79.8213H325.058C326.623 79.8515 328.1 80.4799 329.219 81.591C330.337 82.702 330.968 84.1726 330.999 85.7311C331.029 87.365 330.415 88.9035 329.267 90.0698C328.118 91.2337 326.585 91.8747 324.947 91.8747H324.831L324.828 91.8722ZM324.944 81.787C324.899 81.787 324.856 81.787 324.811 81.787C322.667 81.8549 320.935 83.5793 320.867 85.7135C320.832 86.8246 321.238 87.8753 322.013 88.6722C322.788 89.4691 323.828 89.909 324.942 89.909C324.985 89.909 325.03 89.909 325.073 89.909C327.217 89.8411 328.949 88.1167 329.017 85.9825C329.052 84.8714 328.646 83.8207 327.871 83.0238C327.095 82.2269 326.055 81.787 324.942 81.787H324.944Z" fill="black"/>
<path d="M268.628 91.8742C266.979 91.8742 265.439 91.2231 264.288 90.0441C263.137 88.8652 262.531 87.3092 262.579 85.6677C262.675 82.4451 265.389 79.8232 268.631 79.8232H268.658C269.986 79.8283 271.244 80.2556 272.296 81.055C273.261 81.7865 273.991 82.8071 274.372 83.9433H272.231C271.521 82.611 270.15 81.789 268.628 81.789H268.542C266.366 81.8342 264.576 83.6341 264.551 85.8009C264.538 86.8944 264.957 87.9251 265.73 88.7018C266.502 89.4811 267.532 89.9084 268.628 89.9084C270.15 89.9084 271.519 89.0864 272.231 87.7541H274.372C273.991 88.8929 273.258 89.9109 272.296 90.6424C271.236 91.4493 269.966 91.8742 268.628 91.8742Z" fill="black"/>
<path d="M281.858 91.8742C278.521 91.8742 275.807 89.1719 275.807 85.8487C275.807 82.5255 278.521 79.8232 281.858 79.8232C284.764 79.8232 287.266 81.8845 287.804 84.7225C287.875 85.0921 287.91 85.4716 287.91 85.8512C287.91 86.09 287.895 86.3288 287.867 86.5651H277.829L277.907 86.8643C278.369 88.6591 279.993 89.9109 281.858 89.9109C283.015 89.9109 284.115 89.4232 284.888 88.5686H287.261C286.236 90.5871 284.146 91.8767 281.858 91.8767V91.8742ZM281.858 81.7865C280.106 81.7865 278.551 82.895 277.993 84.5466L277.887 84.8633H285.832L285.726 84.5466C285.168 82.895 283.613 81.7865 281.861 81.7865H281.858Z" fill="black"/>
<path d="M294.316 91.8809C292.503 91.8809 291.031 90.4129 291.031 88.6105V81.7932H288.396V81.6072L292.801 76.9492H293.006V79.8275H296.737V81.7932H293.006V88.5778C293.006 89.3169 293.609 89.9151 294.349 89.9151H296.737V91.8809H294.316Z" fill="black"/>
<path d="M304.337 91.8743C301.36 91.8466 298.937 89.3781 298.937 86.3717V79.8209H300.911V86.3893C300.911 88.2922 302.441 89.8708 304.322 89.906H304.39C306.309 89.906 307.869 88.3525 307.869 86.4421V79.8184H309.843V86.4421C309.843 89.436 307.397 91.8718 304.39 91.8718H304.337V91.8743Z" fill="black"/>
<path d="M244.268 81.5971C243.15 80.4861 241.673 79.8576 240.107 79.83H239.994C238.469 79.83 237.035 80.3855 235.916 81.4011V76.9492H233.939V91.8834H235.434L235.916 90.2997C237.007 91.2952 238.403 91.8532 239.878 91.8809H239.994C241.632 91.8809 243.165 91.2399 244.313 90.076C245.462 88.9121 246.076 87.3712 246.045 85.7373C246.015 84.1788 245.384 82.7082 244.266 81.5971H244.268ZM240.128 89.9126C240.082 89.9126 240.039 89.9126 239.996 89.9126C238.883 89.9126 237.843 89.4727 237.068 88.6759C236.292 87.879 235.886 86.8282 235.921 85.7172C235.99 83.583 237.721 81.8586 239.865 81.7907C239.91 81.7907 239.953 81.7907 239.999 81.7907C241.112 81.7907 242.152 82.2306 242.927 83.0275C243.702 83.8243 244.109 84.8751 244.074 85.9861C244.005 88.1203 242.274 89.8447 240.13 89.9126H240.128Z" fill="black"/>
<path d="M257.992 79.8213L253.008 90.9622L252.124 92.9355C251.243 94.9038 249.284 96.1707 247.12 96.1707H246.471V94.2024H247.176C248.526 94.2024 249.748 93.4106 250.299 92.1839L250.844 90.9622L245.86 79.8213H248.022L251.925 88.5415L255.828 79.8213H257.992Z" fill="black"/>
<path d="M2.02148 141.305C1.53809 141.305 1.23047 140.988 1.23047 140.487V129.316C1.23047 128.815 1.53809 128.499 2.02148 128.499H5.75684C8.13867 128.499 9.81738 130.169 9.81738 132.568C9.81738 134.977 8.12109 136.655 5.73926 136.655H2.8125V140.487C2.8125 140.988 2.50488 141.305 2.02148 141.305ZM2.8125 135.249H5.34375C7.1543 135.249 8.19141 134.256 8.19141 132.568C8.19141 130.89 7.16309 129.905 5.34375 129.905H2.8125V135.249ZM14.5195 141.34C12.5244 141.34 11.3555 140.048 11.3555 137.974V132.7C11.3555 132.217 11.6719 131.883 12.1201 131.883C12.5684 131.883 12.8848 132.217 12.8848 132.7V137.701C12.8848 139.187 13.5791 139.986 14.9941 139.986C16.4795 139.986 17.376 138.967 17.376 137.411V132.7C17.376 132.217 17.6924 131.883 18.1406 131.883C18.5889 131.883 18.9053 132.217 18.9053 132.7V140.566C18.9053 141.006 18.624 141.34 18.1846 141.34C17.7451 141.34 17.4551 141.006 17.4551 140.566V139.696H17.4199C16.875 140.751 15.9258 141.34 14.5195 141.34ZM21.7354 141.34C21.2871 141.34 20.9707 141.006 20.9707 140.522V129.158C20.9707 128.675 21.2871 128.341 21.7354 128.341C22.1836 128.341 22.5 128.675 22.5 129.158V140.522C22.5 141.006 22.1836 141.34 21.7354 141.34ZM27.7383 141.34C26.1123 141.34 24.8379 140.61 24.3984 139.468C24.3457 139.336 24.3281 139.222 24.3281 139.107C24.3281 138.703 24.627 138.475 25.0225 138.475C25.2949 138.475 25.5146 138.615 25.6904 138.932C26.1475 139.731 26.6924 140.092 27.8613 140.092C29.0303 140.092 29.8213 139.582 29.8213 138.729C29.8213 138.07 29.4434 137.719 28.415 137.464L27.0176 137.112C25.251 136.673 24.3984 135.838 24.3984 134.555C24.3984 132.964 25.7959 131.883 27.8613 131.883C29.3643 131.883 30.7002 132.727 30.9375 133.825C30.9551 133.913 30.9639 133.983 30.9639 134.054C30.9639 134.414 30.7354 134.651 30.3662 134.651C30.0674 134.651 29.8564 134.555 29.6895 134.238C29.2939 133.474 28.7051 133.14 27.7734 133.14C26.6748 133.14 25.9102 133.693 25.9102 134.476C25.9102 135.108 26.4023 135.548 27.4043 135.794L28.7666 136.128C30.6738 136.594 31.377 137.262 31.377 138.606C31.377 140.241 29.9092 141.34 27.7383 141.34ZM36.7822 141.34C34.084 141.34 32.502 139.6 32.502 136.646C32.502 133.764 34.1279 131.883 36.6504 131.883C38.9883 131.883 40.6318 133.632 40.6318 136.137C40.6318 136.69 40.3154 137.024 39.7881 137.024H34.0752C34.0752 138.87 35.0859 140.013 36.7207 140.013C37.8105 140.013 38.4785 139.626 39.1904 138.589C39.3486 138.369 39.5244 138.281 39.7617 138.281C40.166 138.281 40.4385 138.545 40.4385 138.949C40.4385 139.072 40.3945 139.23 40.3242 139.397C39.7354 140.637 38.4521 141.34 36.7822 141.34ZM34.084 135.829H39.0498C39.0146 134.247 38.0391 133.21 36.624 133.21C35.2002 133.21 34.1807 134.256 34.084 135.829ZM46.6611 141.34C46.2305 141.34 45.9492 141.041 45.9492 140.593V129.158C45.9492 128.675 46.2656 128.341 46.7139 128.341C47.1621 128.341 47.4785 128.675 47.4785 129.158V133.57H47.5137C48.0938 132.524 49.1572 131.883 50.4492 131.883C52.752 131.883 54.3076 133.746 54.3076 136.611C54.3076 139.485 52.7607 141.34 50.4229 141.34C49.0869 141.34 48.041 140.689 47.4434 139.635H47.4082V140.593C47.4082 141.032 47.1006 141.34 46.6611 141.34ZM50.124 139.995C51.7412 139.995 52.7432 138.703 52.7432 136.611C52.7432 134.537 51.7412 133.228 50.124 133.228C48.5771 133.228 47.4697 134.581 47.4697 136.611C47.4697 138.65 48.5771 139.995 50.124 139.995ZM56.4873 144.601C55.749 144.601 55.3359 144.328 55.3359 143.845C55.3359 143.511 55.5645 143.282 55.9512 143.282C56.1709 143.282 56.2324 143.291 56.4697 143.291C57.0498 143.291 57.6035 142.939 57.9639 141.832L58.1748 141.19L55.0283 132.99C54.9756 132.841 54.9492 132.7 54.9492 132.586C54.9492 132.164 55.2744 131.883 55.7139 131.883C56.0742 131.883 56.3027 132.041 56.4434 132.445L58.9658 139.652H58.9922L61.5234 132.445C61.6641 132.041 61.8662 131.883 62.2441 131.883C62.6836 131.883 62.9912 132.173 62.9912 132.586C62.9912 132.7 62.9648 132.841 62.9121 132.99L59.5371 141.823C58.7461 143.924 57.999 144.601 56.4873 144.601ZM73.4941 141.393C69.9961 141.393 67.7812 138.853 67.7812 134.836C67.7812 130.854 70.0225 128.288 73.4941 128.288C75.8057 128.288 77.6865 129.475 78.4336 131.364C78.5215 131.584 78.5654 131.804 78.5654 131.988C78.5654 132.428 78.2842 132.709 77.8535 132.709C77.4668 132.709 77.1943 132.498 77.0186 132.05C76.4209 130.556 75.0586 129.747 73.4941 129.747C71.0156 129.747 69.4072 131.751 69.4072 134.836C69.4072 137.947 70.998 139.934 73.5029 139.934C75.1553 139.934 76.4561 139.239 77.0537 137.815C77.2207 137.429 77.4404 137.262 77.792 137.262C78.2139 137.262 78.5127 137.561 78.5127 137.974C78.5127 138.246 78.4424 138.483 78.3018 138.765C77.4668 140.443 75.8145 141.393 73.4941 141.393ZM84.2256 141.34C81.5273 141.34 79.9453 139.6 79.9453 136.646C79.9453 133.764 81.5713 131.883 84.0938 131.883C86.4316 131.883 88.0752 133.632 88.0752 136.137C88.0752 136.69 87.7588 137.024 87.2314 137.024H81.5186C81.5186 138.87 82.5293 140.013 84.1641 140.013C85.2539 140.013 85.9219 139.626 86.6338 138.589C86.792 138.369 86.9678 138.281 87.2051 138.281C87.6094 138.281 87.8818 138.545 87.8818 138.949C87.8818 139.072 87.8379 139.23 87.7676 139.397C87.1787 140.637 85.8955 141.34 84.2256 141.34ZM81.5273 135.829H86.4932C86.458 134.247 85.4824 133.21 84.0674 133.21C82.6436 133.21 81.624 134.256 81.5273 135.829ZM90.1143 139.072V133.298H89.3496C88.9102 133.298 88.6641 133.069 88.6641 132.665C88.6641 132.27 88.9102 132.041 89.3496 132.041H90.1143V130.477C90.1143 129.993 90.4307 129.659 90.8789 129.659C91.3271 129.659 91.6436 129.993 91.6436 130.477V132.041H92.8213C93.2607 132.041 93.5068 132.27 93.5068 132.665C93.5068 133.069 93.2607 133.298 92.8213 133.298H91.6436V138.738C91.6436 139.512 91.916 139.881 92.6807 139.934L92.8125 139.942C93.3135 139.978 93.542 140.18 93.542 140.54C93.542 141.006 93.2783 141.252 92.4258 141.252H92.3291C90.8525 141.252 90.1143 140.531 90.1143 139.072ZM98.1738 141.34C96.1787 141.34 95.0098 140.048 95.0098 137.974V132.7C95.0098 132.217 95.3262 131.883 95.7744 131.883C96.2227 131.883 96.5391 132.217 96.5391 132.7V137.701C96.5391 139.187 97.2334 139.986 98.6484 139.986C100.134 139.986 101.03 138.967 101.03 137.411V132.7C101.03 132.217 101.347 131.883 101.795 131.883C102.243 131.883 102.56 132.217 102.56 132.7V140.566C102.56 141.006 102.278 141.34 101.839 141.34C101.399 141.34 101.109 141.006 101.109 140.566V139.696H101.074C100.529 140.751 99.5801 141.34 98.1738 141.34ZM105.311 141.34C104.862 141.34 104.546 141.006 104.546 140.522V132.656C104.546 132.199 104.845 131.883 105.267 131.883C105.688 131.883 105.987 132.199 105.987 132.656V133.535H106.022C106.286 132.586 107.183 131.883 108.097 131.883C108.431 131.883 108.668 131.962 108.817 132.103C108.949 132.226 109.011 132.401 109.011 132.612C109.011 132.85 108.932 133.025 108.773 133.148C108.615 133.28 108.378 133.342 108.044 133.342C106.664 133.342 106.075 134.335 106.075 135.504V140.522C106.075 141.006 105.759 141.34 105.311 141.34ZM113.449 141.34C110.918 141.34 109.213 139.521 109.213 136.611C109.213 133.693 110.918 131.883 113.449 131.883C115.972 131.883 117.677 133.693 117.677 136.611C117.677 139.521 115.972 141.34 113.449 141.34ZM113.449 139.995C115.066 139.995 116.121 138.765 116.121 136.611C116.121 134.458 115.066 133.228 113.449 133.228C111.832 133.228 110.769 134.458 110.769 136.611C110.769 138.765 111.832 139.995 113.449 139.995ZM123.68 144.407C123.231 144.407 122.915 144.073 122.915 143.59V132.656C122.915 132.199 123.214 131.883 123.645 131.883C124.066 131.883 124.365 132.199 124.365 132.656V133.588H124.4C124.963 132.56 126.026 131.883 127.354 131.883C129.683 131.883 131.265 133.746 131.265 136.611C131.265 139.477 129.691 141.34 127.389 141.34C126.079 141.34 125.024 140.698 124.479 139.696H124.444V143.59C124.444 144.073 124.128 144.407 123.68 144.407ZM127.055 139.995C128.681 139.995 129.7 138.686 129.7 136.611C129.7 134.546 128.681 133.228 127.055 133.228C125.49 133.228 124.436 134.581 124.436 136.611C124.436 138.65 125.49 139.995 127.055 139.995ZM133.576 141.34C133.128 141.34 132.812 141.006 132.812 140.522V132.656C132.812 132.199 133.11 131.883 133.532 131.883C133.954 131.883 134.253 132.199 134.253 132.656V133.535H134.288C134.552 132.586 135.448 131.883 136.362 131.883C136.696 131.883 136.934 131.962 137.083 132.103C137.215 132.226 137.276 132.401 137.276 132.612C137.276 132.85 137.197 133.025 137.039 133.148C136.881 133.28 136.644 133.342 136.31 133.342C134.93 133.342 134.341 134.335 134.341 135.504V140.522C134.341 141.006 134.024 141.34 133.576 141.34ZM141.715 141.34C139.184 141.34 137.479 139.521 137.479 136.611C137.479 133.693 139.184 131.883 141.715 131.883C144.237 131.883 145.942 133.693 145.942 136.611C145.942 139.521 144.237 141.34 141.715 141.34ZM141.715 139.995C143.332 139.995 144.387 138.765 144.387 136.611C144.387 134.458 143.332 133.228 141.715 133.228C140.098 133.228 139.034 134.458 139.034 136.611C139.034 138.765 140.098 139.995 141.715 139.995ZM150.574 141.34C150.073 141.34 149.792 141.12 149.572 140.566L146.663 132.981C146.61 132.85 146.584 132.718 146.584 132.586C146.584 132.164 146.892 131.883 147.349 131.883C147.691 131.883 147.92 132.067 148.061 132.463L150.565 139.556H150.601L153.114 132.463C153.255 132.067 153.483 131.883 153.817 131.883C154.274 131.883 154.573 132.164 154.573 132.586C154.573 132.718 154.547 132.85 154.494 132.981L151.594 140.566C151.392 141.094 151.066 141.34 150.574 141.34ZM156.771 130.503C156.252 130.503 155.821 130.072 155.821 129.554C155.821 129.026 156.252 128.604 156.771 128.604C157.298 128.604 157.729 129.026 157.729 129.554C157.729 130.072 157.298 130.503 156.771 130.503ZM156.771 141.34C156.322 141.34 156.006 141.006 156.006 140.522V132.7C156.006 132.217 156.322 131.883 156.771 131.883C157.219 131.883 157.535 132.217 157.535 132.7V140.522C157.535 141.006 157.219 141.34 156.771 141.34ZM163.063 141.34C160.734 141.34 159.152 139.477 159.152 136.611C159.152 133.746 160.726 131.883 163.028 131.883C164.338 131.883 165.393 132.524 165.938 133.526H165.973V129.158C165.973 128.675 166.289 128.341 166.737 128.341C167.186 128.341 167.502 128.675 167.502 129.158V140.593C167.502 141.032 167.194 141.34 166.755 141.34C166.324 141.34 165.973 141.041 165.973 140.593V139.547H165.946C165.445 140.637 164.496 141.34 163.063 141.34ZM163.354 139.995C164.927 139.995 165.981 138.659 165.981 136.611C165.981 134.572 164.927 133.228 163.354 133.228C161.736 133.228 160.717 134.546 160.717 136.611C160.717 138.686 161.736 139.995 163.354 139.995ZM173.399 141.34C170.701 141.34 169.119 139.6 169.119 136.646C169.119 133.764 170.745 131.883 173.268 131.883C175.605 131.883 177.249 133.632 177.249 136.137C177.249 136.69 176.933 137.024 176.405 137.024H170.692C170.692 138.87 171.703 140.013 173.338 140.013C174.428 140.013 175.096 139.626 175.808 138.589C175.966 138.369 176.142 138.281 176.379 138.281C176.783 138.281 177.056 138.545 177.056 138.949C177.056 139.072 177.012 139.23 176.941 139.397C176.353 140.637 175.069 141.34 173.399 141.34ZM170.701 135.829H175.667C175.632 134.247 174.656 133.21 173.241 133.21C171.817 133.21 170.798 134.256 170.701 135.829ZM181.969 141.34C180.343 141.34 179.068 140.61 178.629 139.468C178.576 139.336 178.559 139.222 178.559 139.107C178.559 138.703 178.857 138.475 179.253 138.475C179.525 138.475 179.745 138.615 179.921 138.932C180.378 139.731 180.923 140.092 182.092 140.092C183.261 140.092 184.052 139.582 184.052 138.729C184.052 138.07 183.674 137.719 182.646 137.464L181.248 137.112C179.481 136.673 178.629 135.838 178.629 134.555C178.629 132.964 180.026 131.883 182.092 131.883C183.595 131.883 184.931 132.727 185.168 133.825C185.186 133.913 185.194 133.983 185.194 134.054C185.194 134.414 184.966 134.651 184.597 134.651C184.298 134.651 184.087 134.555 183.92 134.238C183.524 133.474 182.936 133.14 182.004 133.14C180.905 133.14 180.141 133.693 180.141 134.476C180.141 135.108 180.633 135.548 181.635 135.794L182.997 136.128C184.904 136.594 185.607 137.262 185.607 138.606C185.607 140.241 184.14 141.34 181.969 141.34ZM191.637 141.34C191.188 141.34 190.872 141.006 190.872 140.522V132.656C190.872 132.199 191.171 131.883 191.593 131.883C192.015 131.883 192.313 132.199 192.313 132.656V133.535H192.349C192.612 132.586 193.509 131.883 194.423 131.883C194.757 131.883 194.994 131.962 195.144 132.103C195.275 132.226 195.337 132.401 195.337 132.612C195.337 132.85 195.258 133.025 195.1 133.148C194.941 133.28 194.704 133.342 194.37 133.342C192.99 133.342 192.401 134.335 192.401 135.504V140.522C192.401 141.006 192.085 141.34 191.637 141.34ZM199.819 141.34C197.121 141.34 195.539 139.6 195.539 136.646C195.539 133.764 197.165 131.883 199.688 131.883C202.025 131.883 203.669 133.632 203.669 136.137C203.669 136.69 203.353 137.024 202.825 137.024H197.112C197.112 138.87 198.123 140.013 199.758 140.013C200.848 140.013 201.516 139.626 202.228 138.589C202.386 138.369 202.562 138.281 202.799 138.281C203.203 138.281 203.476 138.545 203.476 138.949C203.476 139.072 203.432 139.23 203.361 139.397C202.772 140.637 201.489 141.34 199.819 141.34ZM197.121 135.829H202.087C202.052 134.247 201.076 133.21 199.661 133.21C198.237 133.21 197.218 134.256 197.121 135.829ZM207.879 141.34C206.06 141.34 204.838 140.241 204.838 138.598C204.838 137.033 206.042 136.049 208.151 135.926L210.779 135.776V135.012C210.779 133.896 210.041 133.228 208.775 133.228C207.782 133.228 207.105 133.588 206.596 134.493C206.455 134.748 206.253 134.862 205.963 134.862C205.567 134.862 205.286 134.59 205.286 134.177C205.286 133.983 205.348 133.764 205.471 133.544C205.989 132.542 207.325 131.883 208.811 131.883C210.955 131.883 212.309 133.043 212.309 134.862V140.566C212.309 141.023 212.01 141.34 211.588 141.34C211.157 141.34 210.858 141.023 210.858 140.566V139.608H210.823C210.278 140.654 209.109 141.34 207.879 141.34ZM208.222 140.039C209.663 140.039 210.779 139.028 210.779 137.71V136.963L208.327 137.112C207.097 137.191 206.394 137.736 206.394 138.598C206.394 139.468 207.123 140.039 208.222 140.039ZM215.095 141.34C214.646 141.34 214.33 141.006 214.33 140.522V129.158C214.33 128.675 214.646 128.341 215.095 128.341C215.543 128.341 215.859 128.675 215.859 129.158V140.522C215.859 141.006 215.543 141.34 215.095 141.34ZM218.531 136.752C218.101 136.752 217.775 136.471 217.775 136.04C217.775 135.609 218.101 135.328 218.531 135.328H223.049C223.479 135.328 223.805 135.609 223.805 136.04C223.805 136.471 223.479 136.752 223.049 136.752H218.531ZM226.134 139.072V133.298H225.369C224.93 133.298 224.684 133.069 224.684 132.665C224.684 132.27 224.93 132.041 225.369 132.041H226.134V130.477C226.134 129.993 226.45 129.659 226.898 129.659C227.347 129.659 227.663 129.993 227.663 130.477V132.041H228.841C229.28 132.041 229.526 132.27 229.526 132.665C229.526 133.069 229.28 133.298 228.841 133.298H227.663V138.738C227.663 139.512 227.936 139.881 228.7 139.934L228.832 139.942C229.333 139.978 229.562 140.18 229.562 140.54C229.562 141.006 229.298 141.252 228.445 141.252H228.349C226.872 141.252 226.134 140.531 226.134 139.072ZM231.917 130.503C231.398 130.503 230.968 130.072 230.968 129.554C230.968 129.026 231.398 128.604 231.917 128.604C232.444 128.604 232.875 129.026 232.875 129.554C232.875 130.072 232.444 130.503 231.917 130.503ZM231.917 141.34C231.469 141.34 231.152 141.006 231.152 140.522V132.7C231.152 132.217 231.469 131.883 231.917 131.883C232.365 131.883 232.682 132.217 232.682 132.7V140.522C232.682 141.006 232.365 141.34 231.917 141.34ZM235.512 141.34C235.046 141.34 234.747 140.988 234.747 140.522V132.656C234.747 132.199 235.046 131.883 235.468 131.883C235.89 131.883 236.188 132.199 236.188 132.656V133.5H236.224C236.654 132.533 237.586 131.883 238.816 131.883C240.064 131.883 240.987 132.516 241.383 133.623H241.418C241.928 132.533 243 131.883 244.283 131.883C246.094 131.883 247.263 133.061 247.263 134.871V140.522C247.263 140.988 246.964 141.34 246.498 141.34C246.032 141.34 245.733 140.988 245.733 140.522V135.223C245.733 133.975 245.039 133.236 243.835 133.236C242.622 133.236 241.77 134.133 241.77 135.372V140.522C241.77 140.988 241.471 141.34 241.005 141.34C240.539 141.34 240.24 140.988 240.24 140.522V135.056C240.24 133.957 239.502 133.236 238.368 133.236C237.155 133.236 236.276 134.186 236.276 135.451V140.522C236.276 140.988 235.978 141.34 235.512 141.34ZM253.046 141.34C250.348 141.34 248.766 139.6 248.766 136.646C248.766 133.764 250.392 131.883 252.914 131.883C255.252 131.883 256.896 133.632 256.896 136.137C256.896 136.69 256.579 137.024 256.052 137.024H250.339C250.339 138.87 251.35 140.013 252.984 140.013C254.074 140.013 254.742 139.626 255.454 138.589C255.612 138.369 255.788 138.281 256.025 138.281C256.43 138.281 256.702 138.545 256.702 138.949C256.702 139.072 256.658 139.23 256.588 139.397C255.999 140.637 254.716 141.34 253.046 141.34ZM250.348 135.829H255.313C255.278 134.247 254.303 133.21 252.888 133.21C251.464 133.21 250.444 134.256 250.348 135.829ZM259.708 139.143C260.156 139.143 260.473 139.406 260.473 139.837C260.473 139.995 260.455 140.127 260.402 140.32L259.594 143.344C259.497 143.722 259.295 143.897 258.926 143.897C258.574 143.897 258.302 143.695 258.302 143.344C258.302 143.212 258.319 143.124 258.328 143.071L258.952 139.811C259.049 139.327 259.295 139.143 259.708 139.143ZM266.59 141.34C266.124 141.34 265.825 140.988 265.825 140.522V132.656C265.825 132.199 266.124 131.883 266.546 131.883C266.968 131.883 267.267 132.199 267.267 132.656V133.5H267.302C267.732 132.533 268.664 131.883 269.895 131.883C271.143 131.883 272.065 132.516 272.461 133.623H272.496C273.006 132.533 274.078 131.883 275.361 131.883C277.172 131.883 278.341 133.061 278.341 134.871V140.522C278.341 140.988 278.042 141.34 277.576 141.34C277.11 141.34 276.812 140.988 276.812 140.522V135.223C276.812 133.975 276.117 133.236 274.913 133.236C273.7 133.236 272.848 134.133 272.848 135.372V140.522C272.848 140.988 272.549 141.34 272.083 141.34C271.617 141.34 271.318 140.988 271.318 140.522V135.056C271.318 133.957 270.58 133.236 269.446 133.236C268.233 133.236 267.354 134.186 267.354 135.451V140.522C267.354 140.988 267.056 141.34 266.59 141.34ZM284.124 141.34C281.426 141.34 279.844 139.6 279.844 136.646C279.844 133.764 281.47 131.883 283.992 131.883C286.33 131.883 287.974 133.632 287.974 136.137C287.974 136.69 287.657 137.024 287.13 137.024H281.417C281.417 138.87 282.428 140.013 284.062 140.013C285.152 140.013 285.82 139.626 286.532 138.589C286.69 138.369 286.866 138.281 287.104 138.281C287.508 138.281 287.78 138.545 287.78 138.949C287.78 139.072 287.736 139.23 287.666 139.397C287.077 140.637 285.794 141.34 284.124 141.34ZM281.426 135.829H286.392C286.356 134.247 285.381 133.21 283.966 133.21C282.542 133.21 281.522 134.256 281.426 135.829ZM292.983 141.34C290.654 141.34 289.072 139.477 289.072 136.611C289.072 133.746 290.646 131.883 292.948 131.883C294.258 131.883 295.312 132.524 295.857 133.526H295.893V129.158C295.893 128.675 296.209 128.341 296.657 128.341C297.105 128.341 297.422 128.675 297.422 129.158V140.593C297.422 141.032 297.114 141.34 296.675 141.34C296.244 141.34 295.893 141.041 295.893 140.593V139.547H295.866C295.365 140.637 294.416 141.34 292.983 141.34ZM293.273 139.995C294.847 139.995 295.901 138.659 295.901 136.611C295.901 134.572 294.847 133.228 293.273 133.228C291.656 133.228 290.637 134.546 290.637 136.611C290.637 138.686 291.656 139.995 293.273 139.995ZM300.331 130.503C299.812 130.503 299.382 130.072 299.382 129.554C299.382 129.026 299.812 128.604 300.331 128.604C300.858 128.604 301.289 129.026 301.289 129.554C301.289 130.072 300.858 130.503 300.331 130.503ZM300.331 141.34C299.883 141.34 299.566 141.006 299.566 140.522V132.7C299.566 132.217 299.883 131.883 300.331 131.883C300.779 131.883 301.096 132.217 301.096 132.7V140.522C301.096 141.006 300.779 141.34 300.331 141.34ZM306.932 141.34C304.4 141.34 302.713 139.521 302.713 136.629C302.713 133.755 304.383 131.883 306.914 131.883C308.637 131.883 310.14 132.858 310.491 134.124C310.526 134.238 310.544 134.353 310.544 134.449C310.544 134.854 310.289 135.117 309.894 135.117C309.56 135.117 309.375 134.977 309.164 134.581C308.681 133.676 307.986 133.228 306.932 133.228C305.341 133.228 304.269 134.563 304.269 136.611C304.269 138.712 305.358 139.995 306.932 139.995C308.03 139.995 308.698 139.521 309.173 138.642C309.393 138.229 309.56 138.105 309.894 138.105C310.289 138.105 310.553 138.378 310.553 138.773C310.553 138.888 310.526 139.02 310.482 139.16C310.043 140.426 308.593 141.34 306.932 141.34ZM314.842 141.34C313.022 141.34 311.801 140.241 311.801 138.598C311.801 137.033 313.005 136.049 315.114 135.926L317.742 135.776V135.012C317.742 133.896 317.004 133.228 315.738 133.228C314.745 133.228 314.068 133.588 313.559 134.493C313.418 134.748 313.216 134.862 312.926 134.862C312.53 134.862 312.249 134.59 312.249 134.177C312.249 133.983 312.311 133.764 312.434 133.544C312.952 132.542 314.288 131.883 315.773 131.883C317.918 131.883 319.271 133.043 319.271 134.862V140.566C319.271 141.023 318.973 141.34 318.551 141.34C318.12 141.34 317.821 141.023 317.821 140.566V139.608H317.786C317.241 140.654 316.072 141.34 314.842 141.34ZM315.185 140.039C316.626 140.039 317.742 139.028 317.742 137.71V136.963L315.29 137.112C314.06 137.191 313.356 137.736 313.356 138.598C313.356 139.468 314.086 140.039 315.185 140.039ZM322.058 141.34C321.609 141.34 321.293 141.006 321.293 140.522V129.158C321.293 128.675 321.609 128.341 322.058 128.341C322.506 128.341 322.822 128.675 322.822 129.158V140.522C322.822 141.006 322.506 141.34 322.058 141.34ZM325.494 136.752C325.063 136.752 324.738 136.471 324.738 136.04C324.738 135.609 325.063 135.328 325.494 135.328H330.012C330.442 135.328 330.768 135.609 330.768 136.04C330.768 136.471 330.442 136.752 330.012 136.752H325.494ZM336.296 144.627C334.767 144.609 333.492 144.003 332.851 142.992C332.728 142.799 332.675 142.623 332.675 142.421C332.675 142.034 332.956 141.762 333.36 141.762C333.615 141.762 333.765 141.85 334.002 142.113C334.784 142.975 335.426 143.309 336.357 143.326C337.992 143.353 338.985 142.412 338.985 141.05V139.608H338.95C338.388 140.602 337.298 141.252 336.015 141.252C333.686 141.252 332.156 139.415 332.156 136.576C332.156 133.711 333.686 131.883 336.05 131.883C337.342 131.883 338.353 132.516 338.959 133.544H338.985V132.674C338.985 132.199 339.311 131.883 339.75 131.883C340.189 131.883 340.515 132.199 340.515 132.674V140.997C340.515 143.177 338.897 144.653 336.296 144.627ZM336.322 139.907C337.913 139.907 338.985 138.589 338.985 136.576C338.985 134.563 337.913 133.228 336.322 133.228C334.749 133.228 333.721 134.528 333.721 136.576C333.721 138.624 334.749 139.907 336.322 139.907ZM343.266 141.34C342.817 141.34 342.501 141.006 342.501 140.522V132.656C342.501 132.199 342.8 131.883 343.222 131.883C343.644 131.883 343.942 132.199 343.942 132.656V133.535H343.978C344.241 132.586 345.138 131.883 346.052 131.883C346.386 131.883 346.623 131.962 346.772 132.103C346.904 132.226 346.966 132.401 346.966 132.612C346.966 132.85 346.887 133.025 346.729 133.148C346.57 133.28 346.333 133.342 345.999 133.342C344.619 133.342 344.03 134.335 344.03 135.504V140.522C344.03 141.006 343.714 141.34 343.266 141.34ZM350.543 141.34C348.724 141.34 347.502 140.241 347.502 138.598C347.502 137.033 348.706 136.049 350.815 135.926L353.443 135.776V135.012C353.443 133.896 352.705 133.228 351.439 133.228C350.446 133.228 349.77 133.588 349.26 134.493C349.119 134.748 348.917 134.862 348.627 134.862C348.231 134.862 347.95 134.59 347.95 134.177C347.95 133.983 348.012 133.764 348.135 133.544C348.653 132.542 349.989 131.883 351.475 131.883C353.619 131.883 354.973 133.043 354.973 134.862V140.566C354.973 141.023 354.674 141.34 354.252 141.34C353.821 141.34 353.522 141.023 353.522 140.566V139.608H353.487C352.942 140.654 351.773 141.34 350.543 141.34ZM350.886 140.039C352.327 140.039 353.443 139.028 353.443 137.71V136.963L350.991 137.112C349.761 137.191 349.058 137.736 349.058 138.598C349.058 139.468 349.787 140.039 350.886 140.039ZM360.378 141.34C358.049 141.34 356.467 139.477 356.467 136.611C356.467 133.746 358.04 131.883 360.343 131.883C361.652 131.883 362.707 132.524 363.252 133.526H363.287V129.158C363.287 128.675 363.604 128.341 364.052 128.341C364.5 128.341 364.816 128.675 364.816 129.158V140.593C364.816 141.032 364.509 141.34 364.069 141.34C363.639 141.34 363.287 141.041 363.287 140.593V139.547H363.261C362.76 140.637 361.811 141.34 360.378 141.34ZM360.668 139.995C362.241 139.995 363.296 138.659 363.296 136.611C363.296 134.572 362.241 133.228 360.668 133.228C359.051 133.228 358.031 134.546 358.031 136.611C358.031 138.686 359.051 139.995 360.668 139.995ZM370.714 141.34C368.016 141.34 366.434 139.6 366.434 136.646C366.434 133.764 368.06 131.883 370.582 131.883C372.92 131.883 374.563 133.632 374.563 136.137C374.563 136.69 374.247 137.024 373.72 137.024H368.007C368.007 138.87 369.018 140.013 370.652 140.013C371.742 140.013 372.41 139.626 373.122 138.589C373.28 138.369 373.456 138.281 373.693 138.281C374.098 138.281 374.37 138.545 374.37 138.949C374.37 139.072 374.326 139.23 374.256 139.397C373.667 140.637 372.384 141.34 370.714 141.34ZM368.016 135.829H372.981C372.946 134.247 371.971 133.21 370.556 133.21C369.132 133.21 368.112 134.256 368.016 135.829ZM380.646 141.34C380.197 141.34 379.881 141.006 379.881 140.522V129.141C379.881 128.666 380.188 128.341 380.646 128.341C381.111 128.341 381.41 128.666 381.41 129.141V133.5H381.445C381.955 132.48 382.957 131.883 384.346 131.883C386.35 131.883 387.562 133.236 387.562 135.275V140.522C387.562 141.006 387.246 141.34 386.798 141.34C386.35 141.34 386.033 141.006 386.033 140.522V135.557C386.033 134.106 385.304 133.236 383.871 133.236C382.351 133.236 381.41 134.273 381.41 135.855V140.522C381.41 141.006 381.094 141.34 380.646 141.34ZM393.337 141.34C390.639 141.34 389.057 139.6 389.057 136.646C389.057 133.764 390.683 131.883 393.205 131.883C395.543 131.883 397.187 133.632 397.187 136.137C397.187 136.69 396.87 137.024 396.343 137.024H390.63C390.63 138.87 391.641 140.013 393.275 140.013C394.365 140.013 395.033 139.626 395.745 138.589C395.903 138.369 396.079 138.281 396.316 138.281C396.721 138.281 396.993 138.545 396.993 138.949C396.993 139.072 396.949 139.23 396.879 139.397C396.29 140.637 395.007 141.34 393.337 141.34ZM390.639 135.829H395.604C395.569 134.247 394.594 133.21 393.179 133.21C391.755 133.21 390.735 134.256 390.639 135.829ZM401.396 141.34C399.577 141.34 398.355 140.241 398.355 138.598C398.355 137.033 399.56 136.049 401.669 135.926L404.297 135.776V135.012C404.297 133.896 403.559 133.228 402.293 133.228C401.3 133.228 400.623 133.588 400.113 134.493C399.973 134.748 399.771 134.862 399.48 134.862C399.085 134.862 398.804 134.59 398.804 134.177C398.804 133.983 398.865 133.764 398.988 133.544C399.507 132.542 400.843 131.883 402.328 131.883C404.473 131.883 405.826 133.043 405.826 134.862V140.566C405.826 141.023 405.527 141.34 405.105 141.34C404.675 141.34 404.376 141.023 404.376 140.566V139.608H404.341C403.796 140.654 402.627 141.34 401.396 141.34ZM401.739 140.039C403.181 140.039 404.297 139.028 404.297 137.71V136.963L401.845 137.112C400.614 137.191 399.911 137.736 399.911 138.598C399.911 139.468 400.641 140.039 401.739 140.039ZM408.533 141.34C408.085 141.34 407.769 141.006 407.769 140.522V132.656C407.769 132.199 408.067 131.883 408.489 131.883C408.911 131.883 409.21 132.199 409.21 132.656V133.535H409.245C409.509 132.586 410.405 131.883 411.319 131.883C411.653 131.883 411.891 131.962 412.04 132.103C412.172 132.226 412.233 132.401 412.233 132.612C412.233 132.85 412.154 133.025 411.996 133.148C411.838 133.28 411.601 133.342 411.267 133.342C409.887 133.342 409.298 134.335 409.298 135.504V140.522C409.298 141.006 408.981 141.34 408.533 141.34ZM413.815 139.072V133.298H413.051C412.611 133.298 412.365 133.069 412.365 132.665C412.365 132.27 412.611 132.041 413.051 132.041H413.815V130.477C413.815 129.993 414.132 129.659 414.58 129.659C415.028 129.659 415.345 129.993 415.345 130.477V132.041H416.522C416.962 132.041 417.208 132.27 417.208 132.665C417.208 133.069 416.962 133.298 416.522 133.298H415.345V138.738C415.345 139.512 415.617 139.881 416.382 139.934L416.514 139.942C417.015 139.978 417.243 140.18 417.243 140.54C417.243 141.006 416.979 141.252 416.127 141.252H416.03C414.554 141.252 413.815 140.531 413.815 139.072ZM423.211 141.34C422.745 141.34 422.446 140.988 422.446 140.522V132.656C422.446 132.199 422.745 131.883 423.167 131.883C423.589 131.883 423.888 132.199 423.888 132.656V133.5H423.923C424.354 132.533 425.285 131.883 426.516 131.883C427.764 131.883 428.687 132.516 429.082 133.623H429.117C429.627 132.533 430.699 131.883 431.982 131.883C433.793 131.883 434.962 133.061 434.962 134.871V140.522C434.962 140.988 434.663 141.34 434.197 141.34C433.731 141.34 433.433 140.988 433.433 140.522V135.223C433.433 133.975 432.738 133.236 431.534 133.236C430.321 133.236 429.469 134.133 429.469 135.372V140.522C429.469 140.988 429.17 141.34 428.704 141.34C428.238 141.34 427.939 140.988 427.939 140.522V135.056C427.939 133.957 427.201 133.236 426.067 133.236C424.854 133.236 423.976 134.186 423.976 135.451V140.522C423.976 140.988 423.677 141.34 423.211 141.34ZM440.701 141.34C438.17 141.34 436.465 139.521 436.465 136.611C436.465 133.693 438.17 131.883 440.701 131.883C443.224 131.883 444.929 133.693 444.929 136.611C444.929 139.521 443.224 141.34 440.701 141.34ZM440.701 139.995C442.318 139.995 443.373 138.765 443.373 136.611C443.373 134.458 442.318 133.228 440.701 133.228C439.084 133.228 438.021 134.458 438.021 136.611C438.021 138.765 439.084 139.995 440.701 139.995ZM447.24 141.34C446.792 141.34 446.476 141.006 446.476 140.522V132.656C446.476 132.199 446.774 131.883 447.196 131.883C447.618 131.883 447.917 132.199 447.917 132.656V133.5H447.952C448.462 132.516 449.438 131.883 450.853 131.883C452.856 131.883 454.017 133.175 454.017 135.249V140.522C454.017 141.006 453.7 141.34 453.252 141.34C452.804 141.34 452.487 141.006 452.487 140.522V135.521C452.487 134.045 451.793 133.236 450.387 133.236C448.945 133.236 448.005 134.256 448.005 135.803V140.522C448.005 141.006 447.688 141.34 447.24 141.34ZM456.812 130.503C456.293 130.503 455.862 130.072 455.862 129.554C455.862 129.026 456.293 128.604 456.812 128.604C457.339 128.604 457.77 129.026 457.77 129.554C457.77 130.072 457.339 130.503 456.812 130.503ZM456.812 141.34C456.363 141.34 456.047 141.006 456.047 140.522V132.7C456.047 132.217 456.363 131.883 456.812 131.883C457.26 131.883 457.576 132.217 457.576 132.7V140.522C457.576 141.006 457.26 141.34 456.812 141.34ZM460.134 139.072V133.298H459.369C458.93 133.298 458.684 133.069 458.684 132.665C458.684 132.27 458.93 132.041 459.369 132.041H460.134V130.477C460.134 129.993 460.45 129.659 460.898 129.659C461.347 129.659 461.663 129.993 461.663 130.477V132.041H462.841C463.28 132.041 463.526 132.27 463.526 132.665C463.526 133.069 463.28 133.298 462.841 133.298H461.663V138.738C461.663 139.512 461.936 139.881 462.7 139.934L462.832 139.942C463.333 139.978 463.562 140.18 463.562 140.54C463.562 141.006 463.298 141.252 462.445 141.252H462.349C460.872 141.252 460.134 140.531 460.134 139.072ZM468.598 141.34C466.066 141.34 464.361 139.521 464.361 136.611C464.361 133.693 466.066 131.883 468.598 131.883C471.12 131.883 472.825 133.693 472.825 136.611C472.825 139.521 471.12 141.34 468.598 141.34ZM468.598 139.995C470.215 139.995 471.27 138.765 471.27 136.611C471.27 134.458 470.215 133.228 468.598 133.228C466.98 133.228 465.917 134.458 465.917 136.611C465.917 138.765 466.98 139.995 468.598 139.995ZM475.137 141.34C474.688 141.34 474.372 141.006 474.372 140.522V132.656C474.372 132.199 474.671 131.883 475.093 131.883C475.515 131.883 475.813 132.199 475.813 132.656V133.535H475.849C476.112 132.586 477.009 131.883 477.923 131.883C478.257 131.883 478.494 131.962 478.644 132.103C478.775 132.226 478.837 132.401 478.837 132.612C478.837 132.85 478.758 133.025 478.6 133.148C478.441 133.28 478.204 133.342 477.87 133.342C476.49 133.342 475.901 134.335 475.901 135.504V140.522C475.901 141.006 475.585 141.34 475.137 141.34ZM480.771 130.503C480.252 130.503 479.821 130.072 479.821 129.554C479.821 129.026 480.252 128.604 480.771 128.604C481.298 128.604 481.729 129.026 481.729 129.554C481.729 130.072 481.298 130.503 480.771 130.503ZM480.771 141.34C480.322 141.34 480.006 141.006 480.006 140.522V132.7C480.006 132.217 480.322 131.883 480.771 131.883C481.219 131.883 481.535 132.217 481.535 132.7V140.522C481.535 141.006 481.219 141.34 480.771 141.34ZM484.365 141.34C483.917 141.34 483.601 141.006 483.601 140.522V132.656C483.601 132.199 483.899 131.883 484.321 131.883C484.743 131.883 485.042 132.199 485.042 132.656V133.5H485.077C485.587 132.516 486.562 131.883 487.978 131.883C489.981 131.883 491.142 133.175 491.142 135.249V140.522C491.142 141.006 490.825 141.34 490.377 141.34C489.929 141.34 489.612 141.006 489.612 140.522V135.521C489.612 134.045 488.918 133.236 487.512 133.236C486.07 133.236 485.13 134.256 485.13 135.803V140.522C485.13 141.006 484.813 141.34 484.365 141.34ZM496.784 144.627C495.255 144.609 493.98 144.003 493.339 142.992C493.216 142.799 493.163 142.623 493.163 142.421C493.163 142.034 493.444 141.762 493.849 141.762C494.104 141.762 494.253 141.85 494.49 142.113C495.272 142.975 495.914 143.309 496.846 143.326C498.48 143.353 499.474 142.412 499.474 141.05V139.608H499.438C498.876 140.602 497.786 141.252 496.503 141.252C494.174 141.252 492.645 139.415 492.645 136.576C492.645 133.711 494.174 131.883 496.538 131.883C497.83 131.883 498.841 132.516 499.447 133.544H499.474V132.674C499.474 132.199 499.799 131.883 500.238 131.883C500.678 131.883 501.003 132.199 501.003 132.674V140.997C501.003 143.177 499.386 144.653 496.784 144.627ZM496.811 139.907C498.401 139.907 499.474 138.589 499.474 136.576C499.474 134.563 498.401 133.228 496.811 133.228C495.237 133.228 494.209 134.528 494.209 136.576C494.209 138.624 495.237 139.907 496.811 139.907ZM504.281 141.27C503.719 141.27 503.279 140.83 503.279 140.268C503.279 139.705 503.719 139.266 504.281 139.266C504.844 139.266 505.283 139.705 505.283 140.268C505.283 140.83 504.844 141.27 504.281 141.27ZM511.4 141.305C510.917 141.305 510.609 140.988 510.609 140.487V129.193C510.609 128.692 510.917 128.376 511.4 128.376C511.884 128.376 512.191 128.692 512.191 129.193V140.487C512.191 140.988 511.884 141.305 511.4 141.305ZM514.907 139.072V133.298H514.143C513.703 133.298 513.457 133.069 513.457 132.665C513.457 132.27 513.703 132.041 514.143 132.041H514.907V130.477C514.907 129.993 515.224 129.659 515.672 129.659C516.12 129.659 516.437 129.993 516.437 130.477V132.041H517.614C518.054 132.041 518.3 132.27 518.3 132.665C518.3 133.069 518.054 133.298 517.614 133.298H516.437V138.738C516.437 139.512 516.709 139.881 517.474 139.934L517.605 139.942C518.106 139.978 518.335 140.18 518.335 140.54C518.335 141.006 518.071 141.252 517.219 141.252H517.122C515.646 141.252 514.907 140.531 514.907 139.072ZM526.711 141.34C525.085 141.34 523.811 140.61 523.371 139.468C523.318 139.336 523.301 139.222 523.301 139.107C523.301 138.703 523.6 138.475 523.995 138.475C524.268 138.475 524.487 138.615 524.663 138.932C525.12 139.731 525.665 140.092 526.834 140.092C528.003 140.092 528.794 139.582 528.794 138.729C528.794 138.07 528.416 137.719 527.388 137.464L525.99 137.112C524.224 136.673 523.371 135.838 523.371 134.555C523.371 132.964 524.769 131.883 526.834 131.883C528.337 131.883 529.673 132.727 529.91 133.825C529.928 133.913 529.937 133.983 529.937 134.054C529.937 134.414 529.708 134.651 529.339 134.651C529.04 134.651 528.829 134.555 528.662 134.238C528.267 133.474 527.678 133.14 526.746 133.14C525.647 133.14 524.883 133.693 524.883 134.476C524.883 135.108 525.375 135.548 526.377 135.794L527.739 136.128C529.646 136.594 530.35 137.262 530.35 138.606C530.35 140.241 528.882 141.34 526.711 141.34ZM532.767 130.503C532.248 130.503 531.817 130.072 531.817 129.554C531.817 129.026 532.248 128.604 532.767 128.604C533.294 128.604 533.725 129.026 533.725 129.554C533.725 130.072 533.294 130.503 532.767 130.503ZM532.767 141.34C532.318 141.34 532.002 141.006 532.002 140.522V132.7C532.002 132.217 532.318 131.883 532.767 131.883C533.215 131.883 533.531 132.217 533.531 132.7V140.522C533.531 141.006 533.215 141.34 532.767 141.34ZM536.361 141.34C535.896 141.34 535.597 140.988 535.597 140.522V132.656C535.597 132.199 535.896 131.883 536.317 131.883C536.739 131.883 537.038 132.199 537.038 132.656V133.5H537.073C537.504 132.533 538.436 131.883 539.666 131.883C540.914 131.883 541.837 132.516 542.232 133.623H542.268C542.777 132.533 543.85 131.883 545.133 131.883C546.943 131.883 548.112 133.061 548.112 134.871V140.522C548.112 140.988 547.813 141.34 547.348 141.34C546.882 141.34 546.583 140.988 546.583 140.522V135.223C546.583 133.975 545.889 133.236 544.685 133.236C543.472 133.236 542.619 134.133 542.619 135.372V140.522C542.619 140.988 542.32 141.34 541.854 141.34C541.389 141.34 541.09 140.988 541.09 140.522V135.056C541.09 133.957 540.352 133.236 539.218 133.236C538.005 133.236 537.126 134.186 537.126 135.451V140.522C537.126 140.988 536.827 141.34 536.361 141.34ZM550.828 144.407C550.38 144.407 550.063 144.073 550.063 143.59V132.656C550.063 132.199 550.362 131.883 550.793 131.883C551.215 131.883 551.514 132.199 551.514 132.656V133.588H551.549C552.111 132.56 553.175 131.883 554.502 131.883C556.831 131.883 558.413 133.746 558.413 136.611C558.413 139.477 556.84 141.34 554.537 141.34C553.228 141.34 552.173 140.698 551.628 139.696H551.593V143.59C551.593 144.073 551.276 144.407 550.828 144.407ZM554.203 139.995C555.829 139.995 556.849 138.686 556.849 136.611C556.849 134.546 555.829 133.228 554.203 133.228C552.639 133.228 551.584 134.581 551.584 136.611C551.584 138.65 552.639 139.995 554.203 139.995ZM560.804 141.34C560.355 141.34 560.039 141.006 560.039 140.522V129.158C560.039 128.675 560.355 128.341 560.804 128.341C561.252 128.341 561.568 128.675 561.568 129.158V140.522C561.568 141.006 561.252 141.34 560.804 141.34ZM564.478 130.503C563.959 130.503 563.528 130.072 563.528 129.554C563.528 129.026 563.959 128.604 564.478 128.604C565.005 128.604 565.436 129.026 565.436 129.554C565.436 130.072 565.005 130.503 564.478 130.503ZM564.478 141.34C564.029 141.34 563.713 141.006 563.713 140.522V132.7C563.713 132.217 564.029 131.883 564.478 131.883C564.926 131.883 565.242 132.217 565.242 132.7V140.522C565.242 141.006 564.926 141.34 564.478 141.34ZM568.564 141.34C568.099 141.34 567.8 141.023 567.8 140.531V133.298H567.044C566.648 133.298 566.394 133.069 566.394 132.674C566.394 132.296 566.648 132.041 567.044 132.041H567.8V131.021C567.8 129.272 568.635 128.429 570.129 128.429C570.938 128.429 571.368 128.692 571.368 129.141C571.368 129.422 571.236 129.598 570.955 129.677C570.823 129.712 570.674 129.729 570.48 129.729C569.672 129.729 569.32 130.134 569.32 131.074V132.041H570.674C571.069 132.041 571.324 132.296 571.324 132.674C571.324 133.069 571.069 133.298 570.674 133.298H569.329V140.531C569.329 141.023 569.03 141.34 568.564 141.34ZM573.618 130.503C573.1 130.503 572.669 130.072 572.669 129.554C572.669 129.026 573.1 128.604 573.618 128.604C574.146 128.604 574.576 129.026 574.576 129.554C574.576 130.072 574.146 130.503 573.618 130.503ZM573.618 141.34C573.17 141.34 572.854 141.006 572.854 140.522V132.7C572.854 132.217 573.17 131.883 573.618 131.883C574.066 131.883 574.383 132.217 574.383 132.7V140.522C574.383 141.006 574.066 141.34 573.618 141.34ZM580.28 141.34C577.582 141.34 576 139.6 576 136.646C576 133.764 577.626 131.883 580.148 131.883C582.486 131.883 584.13 133.632 584.13 136.137C584.13 136.69 583.813 137.024 583.286 137.024H577.573C577.573 138.87 578.584 140.013 580.219 140.013C581.309 140.013 581.977 139.626 582.688 138.589C582.847 138.369 583.022 138.281 583.26 138.281C583.664 138.281 583.937 138.545 583.937 138.949C583.937 139.072 583.893 139.23 583.822 139.397C583.233 140.637 581.95 141.34 580.28 141.34ZM577.582 135.829H582.548C582.513 134.247 581.537 133.21 580.122 133.21C578.698 133.21 577.679 134.256 577.582 135.829ZM588.85 141.34C587.224 141.34 585.949 140.61 585.51 139.468C585.457 139.336 585.439 139.222 585.439 139.107C585.439 138.703 585.738 138.475 586.134 138.475C586.406 138.475 586.626 138.615 586.802 138.932C587.259 139.731 587.804 140.092 588.973 140.092C590.142 140.092 590.933 139.582 590.933 138.729C590.933 138.07 590.555 137.719 589.526 137.464L588.129 137.112C586.362 136.673 585.51 135.838 585.51 134.555C585.51 132.964 586.907 131.883 588.973 131.883C590.476 131.883 591.812 132.727 592.049 133.825C592.066 133.913 592.075 133.983 592.075 134.054C592.075 134.414 591.847 134.651 591.478 134.651C591.179 134.651 590.968 134.555 590.801 134.238C590.405 133.474 589.816 133.14 588.885 133.14C587.786 133.14 587.021 133.693 587.021 134.476C587.021 135.108 587.514 135.548 588.516 135.794L589.878 136.128C591.785 136.594 592.488 137.262 592.488 138.606C592.488 140.241 591.021 141.34 588.85 141.34ZM4.3418 170.34C3.84082 170.34 3.55957 170.12 3.33984 169.566L0.430664 161.981C0.37793 161.85 0.351562 161.718 0.351562 161.586C0.351562 161.164 0.65918 160.883 1.11621 160.883C1.45898 160.883 1.6875 161.067 1.82812 161.463L4.33301 168.556H4.36816L6.88184 161.463C7.02246 161.067 7.25098 160.883 7.58496 160.883C8.04199 160.883 8.34082 161.164 8.34082 161.586C8.34082 161.718 8.31445 161.85 8.26172 161.981L5.36133 169.566C5.15918 170.094 4.83398 170.34 4.3418 170.34ZM10.5381 159.503C10.0195 159.503 9.58887 159.072 9.58887 158.554C9.58887 158.026 10.0195 157.604 10.5381 157.604C11.0654 157.604 11.4961 158.026 11.4961 158.554C11.4961 159.072 11.0654 159.503 10.5381 159.503ZM10.5381 170.34C10.0898 170.34 9.77344 170.006 9.77344 169.522V161.7C9.77344 161.217 10.0898 160.883 10.5381 160.883C10.9863 160.883 11.3027 161.217 11.3027 161.7V169.522C11.3027 170.006 10.9863 170.34 10.5381 170.34ZM13.8604 168.072V162.298H13.0957C12.6562 162.298 12.4102 162.069 12.4102 161.665C12.4102 161.27 12.6562 161.041 13.0957 161.041H13.8604V159.477C13.8604 158.993 14.1768 158.659 14.625 158.659C15.0732 158.659 15.3896 158.993 15.3896 159.477V161.041H16.5674C17.0068 161.041 17.2529 161.27 17.2529 161.665C17.2529 162.069 17.0068 162.298 16.5674 162.298H15.3896V167.738C15.3896 168.512 15.6621 168.881 16.4268 168.934L16.5586 168.942C17.0596 168.978 17.2881 169.18 17.2881 169.54C17.2881 170.006 17.0244 170.252 16.1719 170.252H16.0752C14.5986 170.252 13.8604 169.531 13.8604 168.072ZM21.2871 170.34C19.4678 170.34 18.2461 169.241 18.2461 167.598C18.2461 166.033 19.4502 165.049 21.5596 164.926L24.1875 164.776V164.012C24.1875 162.896 23.4492 162.228 22.1836 162.228C21.1904 162.228 20.5137 162.588 20.0039 163.493C19.8633 163.748 19.6611 163.862 19.3711 163.862C18.9756 163.862 18.6943 163.59 18.6943 163.177C18.6943 162.983 18.7559 162.764 18.8789 162.544C19.3975 161.542 20.7334 160.883 22.2188 160.883C24.3633 160.883 25.7168 162.043 25.7168 163.862V169.566C25.7168 170.023 25.418 170.34 24.9961 170.34C24.5654 170.34 24.2666 170.023 24.2666 169.566V168.608H24.2314C23.6865 169.654 22.5176 170.34 21.2871 170.34ZM21.6299 169.039C23.0713 169.039 24.1875 168.028 24.1875 166.71V165.963L21.7354 166.112C20.5049 166.191 19.8018 166.736 19.8018 167.598C19.8018 168.468 20.5312 169.039 21.6299 169.039ZM28.5029 170.34C28.0547 170.34 27.7383 170.006 27.7383 169.522V158.158C27.7383 157.675 28.0547 157.341 28.5029 157.341C28.9512 157.341 29.2676 157.675 29.2676 158.158V169.522C29.2676 170.006 28.9512 170.34 28.5029 170.34ZM35.5166 168.072V162.298H34.752C34.3125 162.298 34.0664 162.069 34.0664 161.665C34.0664 161.27 34.3125 161.041 34.752 161.041H35.5166V159.477C35.5166 158.993 35.833 158.659 36.2812 158.659C36.7295 158.659 37.0459 158.993 37.0459 159.477V161.041H38.2236C38.6631 161.041 38.9092 161.27 38.9092 161.665C38.9092 162.069 38.6631 162.298 38.2236 162.298H37.0459V167.738C37.0459 168.512 37.3184 168.881 38.083 168.934L38.2148 168.942C38.7158 168.978 38.9443 169.18 38.9443 169.54C38.9443 170.006 38.6807 170.252 37.8281 170.252H37.7314C36.2549 170.252 35.5166 169.531 35.5166 168.072ZM41.2207 170.34C40.7725 170.34 40.4561 170.006 40.4561 169.522V161.656C40.4561 161.199 40.7549 160.883 41.1768 160.883C41.5986 160.883 41.8975 161.199 41.8975 161.656V162.535H41.9326C42.1963 161.586 43.0928 160.883 44.0068 160.883C44.3408 160.883 44.5781 160.962 44.7275 161.103C44.8594 161.226 44.9209 161.401 44.9209 161.612C44.9209 161.85 44.8418 162.025 44.6836 162.148C44.5254 162.28 44.2881 162.342 43.9541 162.342C42.5742 162.342 41.9854 163.335 41.9854 164.504V169.522C41.9854 170.006 41.6689 170.34 41.2207 170.34ZM48.498 170.34C46.6787 170.34 45.457 169.241 45.457 167.598C45.457 166.033 46.6611 165.049 48.7705 164.926L51.3984 164.776V164.012C51.3984 162.896 50.6602 162.228 49.3945 162.228C48.4014 162.228 47.7246 162.588 47.2148 163.493C47.0742 163.748 46.8721 163.862 46.582 163.862C46.1865 163.862 45.9053 163.59 45.9053 163.177C45.9053 162.983 45.9668 162.764 46.0898 162.544C46.6084 161.542 47.9443 160.883 49.4297 160.883C51.5742 160.883 52.9277 162.043 52.9277 163.862V169.566C52.9277 170.023 52.6289 170.34 52.207 170.34C51.7764 170.34 51.4775 170.023 51.4775 169.566V168.608H51.4424C50.8975 169.654 49.7285 170.34 48.498 170.34ZM48.8408 169.039C50.2822 169.039 51.3984 168.028 51.3984 166.71V165.963L48.9463 166.112C47.7158 166.191 47.0127 166.736 47.0127 167.598C47.0127 168.468 47.7422 169.039 48.8408 169.039ZM58.6406 170.34C56.1094 170.34 54.4219 168.521 54.4219 165.629C54.4219 162.755 56.0918 160.883 58.623 160.883C60.3457 160.883 61.8486 161.858 62.2002 163.124C62.2354 163.238 62.2529 163.353 62.2529 163.449C62.2529 163.854 61.998 164.117 61.6025 164.117C61.2686 164.117 61.084 163.977 60.873 163.581C60.3896 162.676 59.6953 162.228 58.6406 162.228C57.0498 162.228 55.9775 163.563 55.9775 165.611C55.9775 167.712 57.0674 168.995 58.6406 168.995C59.7393 168.995 60.4072 168.521 60.8818 167.642C61.1016 167.229 61.2686 167.105 61.6025 167.105C61.998 167.105 62.2617 167.378 62.2617 167.773C62.2617 167.888 62.2354 168.02 62.1914 168.16C61.752 169.426 60.3018 170.34 58.6406 170.34ZM64.7314 170.34C64.2832 170.34 63.9668 170.006 63.9668 169.522V158.158C63.9668 157.675 64.2832 157.341 64.7314 157.341C65.1797 157.341 65.4961 157.675 65.4961 158.158V165.102L69.583 161.138C69.7676 160.953 69.917 160.883 70.1367 160.883C70.4971 160.883 70.7871 161.173 70.7871 161.516C70.7871 161.727 70.7256 161.858 70.541 162.034L67.4297 164.987L70.8662 169.171C71.0156 169.355 71.0596 169.496 71.0596 169.689C71.0596 170.059 70.752 170.34 70.3564 170.34C70.1191 170.34 69.9609 170.27 69.7852 170.059L66.3486 165.928L65.4961 166.736V169.522C65.4961 170.006 65.1797 170.34 64.7314 170.34ZM73.4678 159.503C72.9492 159.503 72.5186 159.072 72.5186 158.554C72.5186 158.026 72.9492 157.604 73.4678 157.604C73.9951 157.604 74.4258 158.026 74.4258 158.554C74.4258 159.072 73.9951 159.503 73.4678 159.503ZM73.4678 170.34C73.0195 170.34 72.7031 170.006 72.7031 169.522V161.7C72.7031 161.217 73.0195 160.883 73.4678 160.883C73.916 160.883 74.2324 161.217 74.2324 161.7V169.522C74.2324 170.006 73.916 170.34 73.4678 170.34ZM77.0625 170.34C76.6143 170.34 76.2979 170.006 76.2979 169.522V161.656C76.2979 161.199 76.5967 160.883 77.0186 160.883C77.4404 160.883 77.7393 161.199 77.7393 161.656V162.5H77.7744C78.2842 161.516 79.2598 160.883 80.6748 160.883C82.6787 160.883 83.8389 162.175 83.8389 164.249V169.522C83.8389 170.006 83.5225 170.34 83.0742 170.34C82.626 170.34 82.3096 170.006 82.3096 169.522V164.521C82.3096 163.045 81.6152 162.236 80.209 162.236C78.7676 162.236 77.8271 163.256 77.8271 164.803V169.522C77.8271 170.006 77.5107 170.34 77.0625 170.34ZM89.4814 173.627C87.9521 173.609 86.6777 173.003 86.0361 171.992C85.9131 171.799 85.8604 171.623 85.8604 171.421C85.8604 171.034 86.1416 170.762 86.5459 170.762C86.8008 170.762 86.9502 170.85 87.1875 171.113C87.9697 171.975 88.6113 172.309 89.543 172.326C91.1777 172.353 92.1709 171.412 92.1709 170.05V168.608H92.1357C91.5732 169.602 90.4834 170.252 89.2002 170.252C86.8711 170.252 85.3418 168.415 85.3418 165.576C85.3418 162.711 86.8711 160.883 89.2354 160.883C90.5273 160.883 91.5381 161.516 92.1445 162.544H92.1709V161.674C92.1709 161.199 92.4961 160.883 92.9355 160.883C93.375 160.883 93.7002 161.199 93.7002 161.674V169.997C93.7002 172.177 92.083 173.653 89.4814 173.627ZM89.5078 168.907C91.0986 168.907 92.1709 167.589 92.1709 165.576C92.1709 163.563 91.0986 162.228 89.5078 162.228C87.9346 162.228 86.9062 163.528 86.9062 165.576C86.9062 167.624 87.9346 168.907 89.5078 168.907ZM99.8701 168.072V162.298H99.1055C98.666 162.298 98.4199 162.069 98.4199 161.665C98.4199 161.27 98.666 161.041 99.1055 161.041H99.8701V159.477C99.8701 158.993 100.187 158.659 100.635 158.659C101.083 158.659 101.399 158.993 101.399 159.477V161.041H102.577C103.017 161.041 103.263 161.27 103.263 161.665C103.263 162.069 103.017 162.298 102.577 162.298H101.399V167.738C101.399 168.512 101.672 168.881 102.437 168.934L102.568 168.942C103.069 168.978 103.298 169.18 103.298 169.54C103.298 170.006 103.034 170.252 102.182 170.252H102.085C100.608 170.252 99.8701 169.531 99.8701 168.072ZM108.334 170.34C105.803 170.34 104.098 168.521 104.098 165.611C104.098 162.693 105.803 160.883 108.334 160.883C110.856 160.883 112.562 162.693 112.562 165.611C112.562 168.521 110.856 170.34 108.334 170.34ZM108.334 168.995C109.951 168.995 111.006 167.765 111.006 165.611C111.006 163.458 109.951 162.228 108.334 162.228C106.717 162.228 105.653 163.458 105.653 165.611C105.653 167.765 106.717 168.995 108.334 168.995ZM118.644 170.34C118.195 170.34 117.879 170.006 117.879 169.522V158.141C117.879 157.666 118.187 157.341 118.644 157.341C119.109 157.341 119.408 157.666 119.408 158.141V162.5H119.443C119.953 161.48 120.955 160.883 122.344 160.883C124.348 160.883 125.561 162.236 125.561 164.275V169.522C125.561 170.006 125.244 170.34 124.796 170.34C124.348 170.34 124.031 170.006 124.031 169.522V164.557C124.031 163.106 123.302 162.236 121.869 162.236C120.349 162.236 119.408 163.273 119.408 164.855V169.522C119.408 170.006 119.092 170.34 118.644 170.34ZM131.335 170.34C128.637 170.34 127.055 168.6 127.055 165.646C127.055 162.764 128.681 160.883 131.203 160.883C133.541 160.883 135.185 162.632 135.185 165.137C135.185 165.69 134.868 166.024 134.341 166.024H128.628C128.628 167.87 129.639 169.013 131.273 169.013C132.363 169.013 133.031 168.626 133.743 167.589C133.901 167.369 134.077 167.281 134.314 167.281C134.719 167.281 134.991 167.545 134.991 167.949C134.991 168.072 134.947 168.23 134.877 168.397C134.288 169.637 133.005 170.34 131.335 170.34ZM128.637 164.829H133.603C133.567 163.247 132.592 162.21 131.177 162.21C129.753 162.21 128.733 163.256 128.637 164.829ZM137.575 170.34C137.127 170.34 136.811 170.006 136.811 169.522V158.158C136.811 157.675 137.127 157.341 137.575 157.341C138.023 157.341 138.34 157.675 138.34 158.158V169.522C138.34 170.006 138.023 170.34 137.575 170.34ZM141.17 173.407C140.722 173.407 140.405 173.073 140.405 172.59V161.656C140.405 161.199 140.704 160.883 141.135 160.883C141.557 160.883 141.855 161.199 141.855 161.656V162.588H141.891C142.453 161.56 143.517 160.883 144.844 160.883C147.173 160.883 148.755 162.746 148.755 165.611C148.755 168.477 147.182 170.34 144.879 170.34C143.569 170.34 142.515 169.698 141.97 168.696H141.935V172.59C141.935 173.073 141.618 173.407 141.17 173.407ZM144.545 168.995C146.171 168.995 147.19 167.686 147.19 165.611C147.19 163.546 146.171 162.228 144.545 162.228C142.98 162.228 141.926 163.581 141.926 165.611C141.926 167.65 142.98 168.995 144.545 168.995ZM154.89 173.601C154.151 173.601 153.738 173.328 153.738 172.845C153.738 172.511 153.967 172.282 154.354 172.282C154.573 172.282 154.635 172.291 154.872 172.291C155.452 172.291 156.006 171.939 156.366 170.832L156.577 170.19L153.431 161.99C153.378 161.841 153.352 161.7 153.352 161.586C153.352 161.164 153.677 160.883 154.116 160.883C154.477 160.883 154.705 161.041 154.846 161.445L157.368 168.652H157.395L159.926 161.445C160.066 161.041 160.269 160.883 160.646 160.883C161.086 160.883 161.394 161.173 161.394 161.586C161.394 161.7 161.367 161.841 161.314 161.99L157.939 170.823C157.148 172.924 156.401 173.601 154.89 173.601ZM166.271 170.34C163.74 170.34 162.035 168.521 162.035 165.611C162.035 162.693 163.74 160.883 166.271 160.883C168.794 160.883 170.499 162.693 170.499 165.611C170.499 168.521 168.794 170.34 166.271 170.34ZM166.271 168.995C167.889 168.995 168.943 167.765 168.943 165.611C168.943 163.458 167.889 162.228 166.271 162.228C164.654 162.228 163.591 163.458 163.591 165.611C163.591 167.765 164.654 168.995 166.271 168.995ZM175.166 170.34C173.171 170.34 172.002 169.048 172.002 166.974V161.7C172.002 161.217 172.318 160.883 172.767 160.883C173.215 160.883 173.531 161.217 173.531 161.7V166.701C173.531 168.187 174.226 168.986 175.641 168.986C177.126 168.986 178.022 167.967 178.022 166.411V161.7C178.022 161.217 178.339 160.883 178.787 160.883C179.235 160.883 179.552 161.217 179.552 161.7V169.566C179.552 170.006 179.271 170.34 178.831 170.34C178.392 170.34 178.102 170.006 178.102 169.566V168.696H178.066C177.521 169.751 176.572 170.34 175.166 170.34ZM185.722 168.072V162.298H184.957C184.518 162.298 184.271 162.069 184.271 161.665C184.271 161.27 184.518 161.041 184.957 161.041H185.722V159.477C185.722 158.993 186.038 158.659 186.486 158.659C186.935 158.659 187.251 158.993 187.251 159.477V161.041H188.429C188.868 161.041 189.114 161.27 189.114 161.665C189.114 162.069 188.868 162.298 188.429 162.298H187.251V167.738C187.251 168.512 187.523 168.881 188.288 168.934L188.42 168.942C188.921 168.978 189.149 169.18 189.149 169.54C189.149 170.006 188.886 170.252 188.033 170.252H187.937C186.46 170.252 185.722 169.531 185.722 168.072ZM193.148 170.34C191.329 170.34 190.107 169.241 190.107 167.598C190.107 166.033 191.312 165.049 193.421 164.926L196.049 164.776V164.012C196.049 162.896 195.311 162.228 194.045 162.228C193.052 162.228 192.375 162.588 191.865 163.493C191.725 163.748 191.522 163.862 191.232 163.862C190.837 163.862 190.556 163.59 190.556 163.177C190.556 162.983 190.617 162.764 190.74 162.544C191.259 161.542 192.595 160.883 194.08 160.883C196.225 160.883 197.578 162.043 197.578 163.862V169.566C197.578 170.023 197.279 170.34 196.857 170.34C196.427 170.34 196.128 170.023 196.128 169.566V168.608H196.093C195.548 169.654 194.379 170.34 193.148 170.34ZM193.491 169.039C194.933 169.039 196.049 168.028 196.049 166.71V165.963L193.597 166.112C192.366 166.191 191.663 166.736 191.663 167.598C191.663 168.468 192.393 169.039 193.491 169.039ZM200.364 170.34C199.916 170.34 199.6 170.006 199.6 169.522V158.158C199.6 157.675 199.916 157.341 200.364 157.341C200.812 157.341 201.129 157.675 201.129 158.158V165.102L205.216 161.138C205.4 160.953 205.55 160.883 205.77 160.883C206.13 160.883 206.42 161.173 206.42 161.516C206.42 161.727 206.358 161.858 206.174 162.034L203.062 164.987L206.499 169.171C206.648 169.355 206.692 169.496 206.692 169.689C206.692 170.059 206.385 170.34 205.989 170.34C205.752 170.34 205.594 170.27 205.418 170.059L201.981 165.928L201.129 166.736V169.522C201.129 170.006 200.812 170.34 200.364 170.34ZM211.649 170.34C208.951 170.34 207.369 168.6 207.369 165.646C207.369 162.764 208.995 160.883 211.518 160.883C213.855 160.883 215.499 162.632 215.499 165.137C215.499 165.69 215.183 166.024 214.655 166.024H208.942C208.942 167.87 209.953 169.013 211.588 169.013C212.678 169.013 213.346 168.626 214.058 167.589C214.216 167.369 214.392 167.281 214.629 167.281C215.033 167.281 215.306 167.545 215.306 167.949C215.306 168.072 215.262 168.23 215.191 168.397C214.603 169.637 213.319 170.34 211.649 170.34ZM208.951 164.829H213.917C213.882 163.247 212.906 162.21 211.491 162.21C210.067 162.21 209.048 163.256 208.951 164.829ZM221.502 173.407C221.054 173.407 220.737 173.073 220.737 172.59V161.656C220.737 161.199 221.036 160.883 221.467 160.883C221.889 160.883 222.188 161.199 222.188 161.656V162.588H222.223C222.785 161.56 223.849 160.883 225.176 160.883C227.505 160.883 229.087 162.746 229.087 165.611C229.087 168.477 227.514 170.34 225.211 170.34C223.901 170.34 222.847 169.698 222.302 168.696H222.267V172.59C222.267 173.073 221.95 173.407 221.502 173.407ZM224.877 168.995C226.503 168.995 227.522 167.686 227.522 165.611C227.522 163.546 226.503 162.228 224.877 162.228C223.312 162.228 222.258 163.581 222.258 165.611C222.258 167.65 223.312 168.995 224.877 168.995ZM231.398 170.34C230.95 170.34 230.634 170.006 230.634 169.522V161.656C230.634 161.199 230.933 160.883 231.354 160.883C231.776 160.883 232.075 161.199 232.075 161.656V162.535H232.11C232.374 161.586 233.271 160.883 234.185 160.883C234.519 160.883 234.756 160.962 234.905 161.103C235.037 161.226 235.099 161.401 235.099 161.612C235.099 161.85 235.02 162.025 234.861 162.148C234.703 162.28 234.466 162.342 234.132 162.342C232.752 162.342 232.163 163.335 232.163 164.504V169.522C232.163 170.006 231.847 170.34 231.398 170.34ZM239.537 170.34C237.006 170.34 235.301 168.521 235.301 165.611C235.301 162.693 237.006 160.883 239.537 160.883C242.06 160.883 243.765 162.693 243.765 165.611C243.765 168.521 242.06 170.34 239.537 170.34ZM239.537 168.995C241.154 168.995 242.209 167.765 242.209 165.611C242.209 163.458 241.154 162.228 239.537 162.228C237.92 162.228 236.856 163.458 236.856 165.611C236.856 167.765 237.92 168.995 239.537 168.995ZM247.975 170.34C246.155 170.34 244.934 169.241 244.934 167.598C244.934 166.033 246.138 165.049 248.247 164.926L250.875 164.776V164.012C250.875 162.896 250.137 162.228 248.871 162.228C247.878 162.228 247.201 162.588 246.691 163.493C246.551 163.748 246.349 163.862 246.059 163.862C245.663 163.862 245.382 163.59 245.382 163.177C245.382 162.983 245.443 162.764 245.566 162.544C246.085 161.542 247.421 160.883 248.906 160.883C251.051 160.883 252.404 162.043 252.404 163.862V169.566C252.404 170.023 252.105 170.34 251.684 170.34C251.253 170.34 250.954 170.023 250.954 169.566V168.608H250.919C250.374 169.654 249.205 170.34 247.975 170.34ZM248.317 169.039C249.759 169.039 250.875 168.028 250.875 166.71V165.963L248.423 166.112C247.192 166.191 246.489 166.736 246.489 167.598C246.489 168.468 247.219 169.039 248.317 169.039ZM258.117 170.34C255.586 170.34 253.898 168.521 253.898 165.629C253.898 162.755 255.568 160.883 258.1 160.883C259.822 160.883 261.325 161.858 261.677 163.124C261.712 163.238 261.729 163.353 261.729 163.449C261.729 163.854 261.475 164.117 261.079 164.117C260.745 164.117 260.561 163.977 260.35 163.581C259.866 162.676 259.172 162.228 258.117 162.228C256.526 162.228 255.454 163.563 255.454 165.611C255.454 167.712 256.544 168.995 258.117 168.995C259.216 168.995 259.884 168.521 260.358 167.642C260.578 167.229 260.745 167.105 261.079 167.105C261.475 167.105 261.738 167.378 261.738 167.773C261.738 167.888 261.712 168.02 261.668 168.16C261.229 169.426 259.778 170.34 258.117 170.34ZM263.856 168.072V162.298H263.092C262.652 162.298 262.406 162.069 262.406 161.665C262.406 161.27 262.652 161.041 263.092 161.041H263.856V159.477C263.856 158.993 264.173 158.659 264.621 158.659C265.069 158.659 265.386 158.993 265.386 159.477V161.041H266.563C267.003 161.041 267.249 161.27 267.249 161.665C267.249 162.069 267.003 162.298 266.563 162.298H265.386V167.738C265.386 168.512 265.658 168.881 266.423 168.934L266.555 168.942C267.056 168.978 267.284 169.18 267.284 169.54C267.284 170.006 267.021 170.252 266.168 170.252H266.071C264.595 170.252 263.856 169.531 263.856 168.072ZM269.64 159.503C269.121 159.503 268.69 159.072 268.69 158.554C268.69 158.026 269.121 157.604 269.64 157.604C270.167 157.604 270.598 158.026 270.598 158.554C270.598 159.072 270.167 159.503 269.64 159.503ZM269.64 170.34C269.191 170.34 268.875 170.006 268.875 169.522V161.7C268.875 161.217 269.191 160.883 269.64 160.883C270.088 160.883 270.404 161.217 270.404 161.7V169.522C270.404 170.006 270.088 170.34 269.64 170.34ZM275.818 170.34C275.317 170.34 275.036 170.12 274.816 169.566L271.907 161.981C271.854 161.85 271.828 161.718 271.828 161.586C271.828 161.164 272.136 160.883 272.593 160.883C272.936 160.883 273.164 161.067 273.305 161.463L275.81 168.556H275.845L278.358 161.463C278.499 161.067 278.728 160.883 279.062 160.883C279.519 160.883 279.817 161.164 279.817 161.586C279.817 161.718 279.791 161.85 279.738 161.981L276.838 169.566C276.636 170.094 276.311 170.34 275.818 170.34ZM284.739 170.34C282.041 170.34 280.459 168.6 280.459 165.646C280.459 162.764 282.085 160.883 284.607 160.883C286.945 160.883 288.589 162.632 288.589 165.137C288.589 165.69 288.272 166.024 287.745 166.024H282.032C282.032 167.87 283.043 169.013 284.678 169.013C285.768 169.013 286.436 168.626 287.147 167.589C287.306 167.369 287.481 167.281 287.719 167.281C288.123 167.281 288.396 167.545 288.396 167.949C288.396 168.072 288.352 168.23 288.281 168.397C287.692 169.637 286.409 170.34 284.739 170.34ZM282.041 164.829H287.007C286.972 163.247 285.996 162.21 284.581 162.21C283.157 162.21 282.138 163.256 282.041 164.829ZM297.598 170.34C295.066 170.34 293.379 168.521 293.379 165.629C293.379 162.755 295.049 160.883 297.58 160.883C299.303 160.883 300.806 161.858 301.157 163.124C301.192 163.238 301.21 163.353 301.21 163.449C301.21 163.854 300.955 164.117 300.56 164.117C300.226 164.117 300.041 163.977 299.83 163.581C299.347 162.676 298.652 162.228 297.598 162.228C296.007 162.228 294.935 163.563 294.935 165.611C294.935 167.712 296.024 168.995 297.598 168.995C298.696 168.995 299.364 168.521 299.839 167.642C300.059 167.229 300.226 167.105 300.56 167.105C300.955 167.105 301.219 167.378 301.219 167.773C301.219 167.888 301.192 168.02 301.148 168.16C300.709 169.426 299.259 170.34 297.598 170.34ZM306.633 170.34C304.102 170.34 302.396 168.521 302.396 165.611C302.396 162.693 304.102 160.883 306.633 160.883C309.155 160.883 310.86 162.693 310.86 165.611C310.86 168.521 309.155 170.34 306.633 170.34ZM306.633 168.995C308.25 168.995 309.305 167.765 309.305 165.611C309.305 163.458 308.25 162.228 306.633 162.228C305.016 162.228 303.952 163.458 303.952 165.611C303.952 167.765 305.016 168.995 306.633 168.995ZM313.172 170.34C312.724 170.34 312.407 170.006 312.407 169.522V161.656C312.407 161.199 312.706 160.883 313.128 160.883C313.55 160.883 313.849 161.199 313.849 161.656V162.5H313.884C314.394 161.516 315.369 160.883 316.784 160.883C318.788 160.883 319.948 162.175 319.948 164.249V169.522C319.948 170.006 319.632 170.34 319.184 170.34C318.735 170.34 318.419 170.006 318.419 169.522V164.521C318.419 163.045 317.725 162.236 316.318 162.236C314.877 162.236 313.937 163.256 313.937 164.803V169.522C313.937 170.006 313.62 170.34 313.172 170.34ZM322.392 168.072V162.298H321.627C321.188 162.298 320.941 162.069 320.941 161.665C320.941 161.27 321.188 161.041 321.627 161.041H322.392V159.477C322.392 158.993 322.708 158.659 323.156 158.659C323.604 158.659 323.921 158.993 323.921 159.477V161.041H325.099C325.538 161.041 325.784 161.27 325.784 161.665C325.784 162.069 325.538 162.298 325.099 162.298H323.921V167.738C323.921 168.512 324.193 168.881 324.958 168.934L325.09 168.942C325.591 168.978 325.819 169.18 325.819 169.54C325.819 170.006 325.556 170.252 324.703 170.252H324.606C323.13 170.252 322.392 169.531 322.392 168.072ZM328.096 170.34C327.647 170.34 327.331 170.006 327.331 169.522V161.656C327.331 161.199 327.63 160.883 328.052 160.883C328.474 160.883 328.772 161.199 328.772 161.656V162.535H328.808C329.071 161.586 329.968 160.883 330.882 160.883C331.216 160.883 331.453 160.962 331.603 161.103C331.734 161.226 331.796 161.401 331.796 161.612C331.796 161.85 331.717 162.025 331.559 162.148C331.4 162.28 331.163 162.342 330.829 162.342C329.449 162.342 328.86 163.335 328.86 164.504V169.522C328.86 170.006 328.544 170.34 328.096 170.34ZM336.234 170.34C333.703 170.34 331.998 168.521 331.998 165.611C331.998 162.693 333.703 160.883 336.234 160.883C338.757 160.883 340.462 162.693 340.462 165.611C340.462 168.521 338.757 170.34 336.234 170.34ZM336.234 168.995C337.852 168.995 338.906 167.765 338.906 165.611C338.906 163.458 337.852 162.228 336.234 162.228C334.617 162.228 333.554 163.458 333.554 165.611C333.554 167.765 334.617 168.995 336.234 168.995ZM342.853 170.34C342.404 170.34 342.088 170.006 342.088 169.522V158.158C342.088 157.675 342.404 157.341 342.853 157.341C343.301 157.341 343.617 157.675 343.617 158.158V169.522C343.617 170.006 343.301 170.34 342.853 170.34ZM353.162 170.34C350.631 170.34 348.926 168.521 348.926 165.611C348.926 162.693 350.631 160.883 353.162 160.883C355.685 160.883 357.39 162.693 357.39 165.611C357.39 168.521 355.685 170.34 353.162 170.34ZM353.162 168.995C354.779 168.995 355.834 167.765 355.834 165.611C355.834 163.458 354.779 162.228 353.162 162.228C351.545 162.228 350.481 163.458 350.481 165.611C350.481 167.765 351.545 168.995 353.162 168.995ZM360.193 170.34C359.728 170.34 359.429 170.023 359.429 169.531V162.298H358.673C358.277 162.298 358.022 162.069 358.022 161.674C358.022 161.296 358.277 161.041 358.673 161.041H359.429V160.021C359.429 158.272 360.264 157.429 361.758 157.429C362.566 157.429 362.997 157.692 362.997 158.141C362.997 158.422 362.865 158.598 362.584 158.677C362.452 158.712 362.303 158.729 362.109 158.729C361.301 158.729 360.949 159.134 360.949 160.074V161.041H362.303C362.698 161.041 362.953 161.296 362.953 161.674C362.953 162.069 362.698 162.298 362.303 162.298H360.958V169.531C360.958 170.023 360.659 170.34 360.193 170.34ZM368.991 173.601C368.253 173.601 367.84 173.328 367.84 172.845C367.84 172.511 368.068 172.282 368.455 172.282C368.675 172.282 368.736 172.291 368.974 172.291C369.554 172.291 370.107 171.939 370.468 170.832L370.679 170.19L367.532 161.99C367.479 161.841 367.453 161.7 367.453 161.586C367.453 161.164 367.778 160.883 368.218 160.883C368.578 160.883 368.807 161.041 368.947 161.445L371.47 168.652H371.496L374.027 161.445C374.168 161.041 374.37 160.883 374.748 160.883C375.188 160.883 375.495 161.173 375.495 161.586C375.495 161.7 375.469 161.841 375.416 161.99L372.041 170.823C371.25 172.924 370.503 173.601 368.991 173.601ZM380.373 170.34C377.842 170.34 376.137 168.521 376.137 165.611C376.137 162.693 377.842 160.883 380.373 160.883C382.896 160.883 384.601 162.693 384.601 165.611C384.601 168.521 382.896 170.34 380.373 170.34ZM380.373 168.995C381.99 168.995 383.045 167.765 383.045 165.611C383.045 163.458 381.99 162.228 380.373 162.228C378.756 162.228 377.692 163.458 377.692 165.611C377.692 167.765 378.756 168.995 380.373 168.995ZM389.268 170.34C387.272 170.34 386.104 169.048 386.104 166.974V161.7C386.104 161.217 386.42 160.883 386.868 160.883C387.316 160.883 387.633 161.217 387.633 161.7V166.701C387.633 168.187 388.327 168.986 389.742 168.986C391.228 168.986 392.124 167.967 392.124 166.411V161.7C392.124 161.217 392.44 160.883 392.889 160.883C393.337 160.883 393.653 161.217 393.653 161.7V169.566C393.653 170.006 393.372 170.34 392.933 170.34C392.493 170.34 392.203 170.006 392.203 169.566V168.696H392.168C391.623 169.751 390.674 170.34 389.268 170.34ZM396.404 170.34C395.956 170.34 395.64 170.006 395.64 169.522V161.656C395.64 161.199 395.938 160.883 396.36 160.883C396.782 160.883 397.081 161.199 397.081 161.656V162.535H397.116C397.38 161.586 398.276 160.883 399.19 160.883C399.524 160.883 399.762 160.962 399.911 161.103C400.043 161.226 400.104 161.401 400.104 161.612C400.104 161.85 400.025 162.025 399.867 162.148C399.709 162.28 399.472 162.342 399.138 162.342C397.758 162.342 397.169 163.335 397.169 164.504V169.522C397.169 170.006 396.853 170.34 396.404 170.34ZM405.729 170.34C405.281 170.34 404.965 170.006 404.965 169.522V158.141C404.965 157.666 405.272 157.341 405.729 157.341C406.195 157.341 406.494 157.666 406.494 158.141V162.5H406.529C407.039 161.48 408.041 160.883 409.43 160.883C411.434 160.883 412.646 162.236 412.646 164.275V169.522C412.646 170.006 412.33 170.34 411.882 170.34C411.434 170.34 411.117 170.006 411.117 169.522V164.557C411.117 163.106 410.388 162.236 408.955 162.236C407.435 162.236 406.494 163.273 406.494 164.855V169.522C406.494 170.006 406.178 170.34 405.729 170.34ZM418.421 170.34C415.723 170.34 414.141 168.6 414.141 165.646C414.141 162.764 415.767 160.883 418.289 160.883C420.627 160.883 422.271 162.632 422.271 165.137C422.271 165.69 421.954 166.024 421.427 166.024H415.714C415.714 167.87 416.725 169.013 418.359 169.013C419.449 169.013 420.117 168.626 420.829 167.589C420.987 167.369 421.163 167.281 421.4 167.281C421.805 167.281 422.077 167.545 422.077 167.949C422.077 168.072 422.033 168.23 421.963 168.397C421.374 169.637 420.091 170.34 418.421 170.34ZM415.723 164.829H420.688C420.653 163.247 419.678 162.21 418.263 162.21C416.839 162.21 415.819 163.256 415.723 164.829ZM426.48 170.34C424.661 170.34 423.439 169.241 423.439 167.598C423.439 166.033 424.644 165.049 426.753 164.926L429.381 164.776V164.012C429.381 162.896 428.643 162.228 427.377 162.228C426.384 162.228 425.707 162.588 425.197 163.493C425.057 163.748 424.854 163.862 424.564 163.862C424.169 163.862 423.888 163.59 423.888 163.177C423.888 162.983 423.949 162.764 424.072 162.544C424.591 161.542 425.927 160.883 427.412 160.883C429.557 160.883 430.91 162.043 430.91 163.862V169.566C430.91 170.023 430.611 170.34 430.189 170.34C429.759 170.34 429.46 170.023 429.46 169.566V168.608H429.425C428.88 169.654 427.711 170.34 426.48 170.34ZM426.823 169.039C428.265 169.039 429.381 168.028 429.381 166.71V165.963L426.929 166.112C425.698 166.191 424.995 166.736 424.995 167.598C424.995 168.468 425.725 169.039 426.823 169.039ZM433.696 170.34C433.248 170.34 432.932 170.006 432.932 169.522V158.158C432.932 157.675 433.248 157.341 433.696 157.341C434.145 157.341 434.461 157.675 434.461 158.158V169.522C434.461 170.006 434.145 170.34 433.696 170.34ZM437.019 168.072V162.298H436.254C435.814 162.298 435.568 162.069 435.568 161.665C435.568 161.27 435.814 161.041 436.254 161.041H437.019V159.477C437.019 158.993 437.335 158.659 437.783 158.659C438.231 158.659 438.548 158.993 438.548 159.477V161.041H439.726C440.165 161.041 440.411 161.27 440.411 161.665C440.411 162.069 440.165 162.298 439.726 162.298H438.548V167.738C438.548 168.512 438.82 168.881 439.585 168.934L439.717 168.942C440.218 168.978 440.446 169.18 440.446 169.54C440.446 170.006 440.183 170.252 439.33 170.252H439.233C437.757 170.252 437.019 169.531 437.019 168.072ZM442.802 170.34C442.354 170.34 442.037 170.006 442.037 169.522V158.141C442.037 157.666 442.345 157.341 442.802 157.341C443.268 157.341 443.566 157.666 443.566 158.141V162.5H443.602C444.111 161.48 445.113 160.883 446.502 160.883C448.506 160.883 449.719 162.236 449.719 164.275V169.522C449.719 170.006 449.402 170.34 448.954 170.34C448.506 170.34 448.189 170.006 448.189 169.522V164.557C448.189 163.106 447.46 162.236 446.027 162.236C444.507 162.236 443.566 163.273 443.566 164.855V169.522C443.566 170.006 443.25 170.34 442.802 170.34ZM452.953 170.27C452.391 170.27 451.951 169.83 451.951 169.268C451.951 168.705 452.391 168.266 452.953 168.266C453.516 168.266 453.955 168.705 453.955 169.268C453.955 169.83 453.516 170.27 452.953 170.27Z" fill="#B2B2B2"/>
<defs>
<linearGradient id="paint0_linear_10450_4902" x1="60.3304" y1="101.598" x2="60.3304" y2="1.77219" gradientUnits="userSpaceOnUse">
<stop stop-color="#0364F2"/>
<stop offset="1" stop-color="#7D78F6"/>
</linearGradient>
<linearGradient id="paint1_linear_10450_4902" x1="40.7477" y1="86.5579" x2="30.7759" y2="67.0637" gradientUnits="userSpaceOnUse">
<stop stop-color="#0364F2"/>
<stop offset="1" stop-color="white" stop-opacity="0"/>
</linearGradient>
<linearGradient id="paint2_linear_10450_4902" x1="67.0095" y1="49.3048" x2="76.5705" y2="62.8605" gradientUnits="userSpaceOnUse">
<stop stop-color="#0364F2"/>
<stop offset="1" stop-color="white" stop-opacity="0"/>
</linearGradient>
<linearGradient id="paint3_linear_10450_4902" x1="134.011" y1="85.8438" x2="229.303" y2="85.8438" gradientUnits="userSpaceOnUse">
<stop stop-color="#0364F2"/>
<stop offset="1" stop-color="#7D78F6"/>
</linearGradient>
</defs>
</svg>
