<svg width="22" height="22" viewBox="0 0 22 22" fill="none" xmlns="http://www.w3.org/2000/svg">
<path d="M17.5499 13.1489L16.6425 11.6427C16.4519 11.3069 16.2795 10.6717 16.2795 10.2997V8.00395C16.2795 5.87154 15.0273 4.0295 13.2216 3.16747C12.7497 2.33265 11.8786 1.81543 10.8805 1.81543C9.89138 1.81543 9.00212 2.3508 8.53026 3.19469C6.76082 4.07487 5.53582 5.89876 5.53582 8.00395V10.2997C5.53582 10.6717 5.36341 11.3069 5.17286 11.6336L4.25638 13.1489C3.89341 13.7569 3.81175 14.4284 4.0386 15.0454C4.25638 15.6534 4.7736 16.1252 5.44508 16.3521C7.20545 16.951 9.05656 17.2414 10.9077 17.2414C12.7588 17.2414 14.6099 16.951 16.3703 16.3612C17.0055 16.1525 17.4955 15.6715 17.7314 15.0454C17.9673 14.4193 17.9038 13.7297 17.5499 13.1489Z" fill="#0F72F4"/>
<path d="M13.4569 18.1575C13.0758 19.2101 12.0686 19.9633 10.889 19.9633C10.1721 19.9633 9.46434 19.6729 8.96526 19.1557C8.67489 18.8834 8.45712 18.5205 8.33008 18.1484C8.44804 18.1666 8.566 18.1757 8.69304 18.1938C8.90174 18.221 9.11952 18.2483 9.3373 18.2664C9.85452 18.3118 10.3808 18.339 10.9071 18.339C11.4243 18.339 11.9416 18.3118 12.4497 18.2664C12.6403 18.2483 12.8308 18.2392 13.0123 18.212C13.1575 18.1938 13.3027 18.1757 13.4569 18.1575Z" fill="#0F72F4"/>
</svg>
