<?xml version="1.0" encoding="UTF-8"?>
<svg xmlns="http://www.w3.org/2000/svg" xmlns:xlink="http://www.w3.org/1999/xlink" viewBox="0 0 1339.57 406.5">
  <defs>
    <style>
      .cls-1 {
        fill: url(#linear-gradient-2);
      }

      .cls-1, .cls-2 {
        mix-blend-mode: multiply;
      }

      .cls-3 {
        fill: url(#linear-gradient-4);
      }

      .cls-4 {
        fill: #030911;
      }

      .cls-5 {
        isolation: isolate;
      }

      .cls-2 {
        fill: url(#linear-gradient-3);
      }

      .cls-6 {
        fill: url(#linear-gradient);
      }
    </style>
    <linearGradient id="linear-gradient" x1="253.23" y1="404.17" x2="253.23" y2="7.05" gradientUnits="userSpaceOnUse">
      <stop offset="0" stop-color="#0364f2"/>
      <stop offset="1" stop-color="#7d78f6"/>
    </linearGradient>
    <linearGradient id="linear-gradient-2" x1="175.67" y1="344.35" x2="135.9" y2="266.94" gradientUnits="userSpaceOnUse">
      <stop offset="0" stop-color="#0364f2"/>
      <stop offset="1" stop-color="#fff" stop-opacity="0"/>
    </linearGradient>
    <linearGradient id="linear-gradient-3" x1="279.67" y1="196.14" x2="317.76" y2="249.91" xlink:href="#linear-gradient-2"/>
    <linearGradient id="linear-gradient-4" x1="545.06" y1="341.49" x2="922.5" y2="341.49" xlink:href="#linear-gradient"/>
  </defs>
  <g class="cls-5">
    <g id="Layer_1" data-name="Layer 1">
      <g>
        <path class="cls-6" d="M345.95,0H116.34v196.79c0,4.33,3.51,7.84,7.84,7.84h39.73c4.33,0,7.84-3.51,7.84-7.84V55.42h174.19c53.27,0,95.78,45.99,90.32,100.25-4.47,43.84-41.69,76.76-85.03,80.89-3.14.33-6.29.5-9.43.5h-3.97l-39.87-83.87-6.78-14.39c-10.09-21.01-40.53-18.86-47.48,3.31l-18.36,58.56-31.1,98.59-25.45-53.77c-2.44-5.15-7.62-8.43-13.32-8.43H22.11c-4.33,0-7.84,3.51-7.84,7.84v39.73c0,4.33,3.51,7.84,7.84,7.84h107.62l40.03,84.53,7.11,14.89c9.92,21.01,40.53,18.86,47.48-3.31l31.1-99.59,18.2-57.9,26,54.5c2,4.2,6.24,6.88,10.9,6.88h40.52c.06-.06.1-.1.17-.17,78.25-2.81,140.94-67.33,140.94-146.07S426.68,0,345.95,0Z"/>
        <path class="cls-1" d="M194.25,299.26l-10.76,34.16c-4.89,15.54-26.31,17.01-33.29,2.29l-20.47-43.23h-24.65v-55.42h50.39c5.7,0,10.88,3.28,13.32,8.43l25.45,53.77Z"/>
        <path class="cls-2" d="M351.24,236.56v38c-7,7-10.92,10.92-17.92,17.92h-19.08c-6.91,0-13.2-3.97-16.17-10.2l-24.41-51.17,10.68-34.22c4.86-15.56,26.29-17.08,33.29-2.35l20.22,42.53h3.97c3.14,0,6.29-.17,9.43-.5Z"/>
        <rect class="cls-3" x="545.06" y="337.71" width="377.44" height="7.56"/>
        <path class="cls-4" d="M859.51,194.76h-.28c-.8,7.02-3.29,13.54-7.04,19.13-7.75,11.54-20.93,19.13-35.88,19.13s-28.12-7.59-35.88-19.13c-3.75-5.59-6.24-12.11-7.04-19.13h-.28v-107.15h-38.25v102.21c0,1.66.05,3.31.16,4.94.38,6.62,1.57,13.03,3.46,19.13,2.1,6.8,5.06,13.22,8.77,19.13,6.55,10.45,15.4,19.31,25.86,25.87,12.52,7.85,27.33,12.39,43.2,12.39s30.68-4.54,43.2-12.39c10.46-6.55,19.32-15.41,25.87-25.87,3.71-5.91,6.67-12.33,8.77-19.13,1.89-6.1,3.08-12.51,3.46-19.13.11-1.63.16-3.28.16-4.94v-102.21h-38.26v107.15Z"/>
        <path class="cls-4" d="M673.47,51.78c-5.91-3.71-12.33-6.67-19.13-8.77-6.1-1.89-12.51-3.08-19.13-3.46-1.63-.11-3.28-.16-4.94-.16h-85.21v231.89h38.26v-68.98h46.95c1.66,0,3.31-.05,4.94-.16,6.62-.38,13.03-1.57,19.13-3.46,6.8-2.1,13.22-5.06,19.13-8.77,10.45-6.55,19.31-15.4,25.87-25.86,7.85-12.52,12.39-27.33,12.39-43.2s-4.54-30.68-12.39-43.2c-6.55-10.46-15.41-19.32-25.87-25.87ZM654.34,156.73c-5.59,3.75-12.11,6.24-19.13,7.04v.28h-51.89v-86.4h51.89v.28c7.02.8,13.54,3.29,19.13,7.04,11.54,7.75,19.13,20.93,19.13,35.88s-7.59,28.12-19.13,35.88Z"/>
        <rect class="cls-4" x="928.9" y="39.39" width="38.25" height="231.89"/>
        <path class="cls-4" d="M1325.3,179.44c0-5.16-.43-10.22-1.25-15.15-4.05-24.41-17.73-45.57-37.01-59.44-15.07-10.85-33.57-17.24-53.57-17.24s-38.5,6.39-53.58,17.25c-19.28,13.86-32.96,35.02-37.01,59.43-.82,4.93-1.25,9.99-1.25,15.15s.44,10.34,1.28,15.32c1.11,6.65,2.94,13.05,5.41,19.13,2.75,6.83,6.31,13.24,10.56,19.13,5.81,8.09,12.92,15.2,21.01,21.01,15.08,10.86,33.58,17.25,53.58,17.25s38.5-6.39,53.57-17.24c8.1-5.82,15.2-12.93,21.01-21.02,4.25-5.89,7.81-12.3,10.56-19.13h-44.11c-9.83,11.7-24.56,19.13-41.03,19.13s-31.21-7.43-41.04-19.13c-4.65-5.53-8.2-12.02-10.31-19.13h141.9c.84-4.98,1.28-10.1,1.28-15.32ZM1182.06,164.29c6.54-22.21,27.08-38.42,51.41-38.42s44.86,16.21,51.4,38.42h-102.81Z"/>
        <path class="cls-4" d="M1118.23,188.48c-5.4-6.97-11.96-12.28-19.48-15.78-7.22-3.36-16.65-6.76-28-10.1-8.17-2.45-14.56-4.63-18.99-6.49-4.19-1.75-7.72-4.05-10.51-6.84-2.52-2.52-3.75-5.63-3.75-9.51,0-5.8,1.66-10.04,5.08-12.97,3.5-3,8.35-4.52,14.4-4.52,7.06,0,12.76,1.74,16.93,5.18,4.11,3.39,6.25,7.55,6.53,12.72l.15,2.74h44.19l-.23-3.12c-1.22-16.37-7.83-29.33-19.65-38.52-11.66-9.07-26.95-13.67-45.44-13.67-12.29,0-23.39,2.13-33.01,6.34-9.76,4.27-17.46,10.52-22.89,18.58-5.45,8.08-8.21,17.67-8.21,28.49,0,11.56,2.76,20.98,8.19,28.02,5.32,6.9,11.8,12.13,19.25,15.54,7.15,3.28,16.53,6.64,27.91,9.98,8.15,2.29,14.62,4.39,19.22,6.24,4.31,1.74,7.95,4.15,10.8,7.14,2.64,2.79,3.93,6.28,3.93,10.69,0,5.45-1.94,9.73-5.93,13.07-4.08,3.43-9.9,5.17-17.29,5.17s-12.84-1.84-16.83-5.47c-4.02-3.65-6.19-8.55-6.64-14.97l-.19-2.7h-42.97l.05,2.95c.17,11.17,3.29,21.02,9.26,29.27,5.92,8.19,14.07,14.54,24.22,18.88,10.01,4.28,21.4,6.45,33.85,6.45,13.17,0,24.74-2.49,34.4-7.41,9.73-4.95,17.24-11.72,22.31-20.12,5.06-8.38,7.63-17.59,7.63-27.37,0-11.38-2.8-20.77-8.32-27.9Z"/>
        <g>
          <path class="cls-4" d="M1250.28,365.49v-47.95h5.11l1.47,5.89s5.25-8,19.08-5.89h0v7.82h-4.62c-4.33,0-7.66,1.24-9.88,3.69-2.21,2.43-3.34,6.01-3.34,10.64v25.8h-7.82Z"/>
          <path class="cls-4" d="M1300.87,365.48c-6.2-.12-12.05-2.62-16.47-7.04-4.42-4.42-6.93-10.28-7.04-16.47-.12-6.49,2.32-12.62,6.86-17.25,4.55-4.63,10.62-7.18,17.11-7.18h.45c6.2.12,12.05,2.62,16.48,7.04,4.43,4.42,6.93,10.27,7.05,16.47.12,6.5-2.31,12.62-6.86,17.26-4.55,4.63-10.62,7.18-17.11,7.18h-.46ZM1301.33,325.36c-.18,0-.35,0-.53,0-8.49.27-15.35,7.13-15.62,15.62-.14,4.42,1.47,8.6,4.54,11.77,3.07,3.17,7.19,4.92,11.6,4.92.17,0,.35,0,.52,0,8.49-.27,15.35-7.13,15.62-15.62.14-4.42-1.47-8.6-4.54-11.77-3.07-3.17-7.19-4.92-11.6-4.92Z"/>
          <path class="cls-4" d="M1078.28,365.49c-6.53,0-12.63-2.59-17.19-7.28-4.56-4.69-6.96-10.88-6.77-17.41.38-12.82,11.13-23.25,23.97-23.25h.11c5.26.02,10.24,1.72,14.41,4.9,3.82,2.91,6.71,6.97,8.22,11.49h-8.48c-2.81-5.3-8.24-8.57-14.27-8.57h-.34c-8.62.18-15.71,7.34-15.81,15.96-.05,4.35,1.61,8.45,4.67,11.54,3.06,3.1,7.14,4.8,11.48,4.8,6.03,0,11.45-3.27,14.27-8.57h8.48c-1.51,4.53-4.41,8.58-8.22,11.49-4.2,3.21-9.23,4.9-14.53,4.9Z"/>
          <path class="cls-4" d="M1130.67,365.49c-13.22,0-23.97-10.75-23.97-23.97s10.75-23.97,23.97-23.97c11.51,0,21.42,8.2,23.55,19.49.28,1.47.42,2.98.42,4.49,0,.95-.06,1.9-.17,2.84h-39.76l.31,1.19c1.83,7.14,8.26,12.12,15.65,12.12,4.58,0,8.94-1.94,12-5.34h9.4c-4.06,8.03-12.34,13.16-21.4,13.16ZM1130.67,325.36c-6.94,0-13.1,4.41-15.31,10.98l-.42,1.26h31.47l-.42-1.26c-2.21-6.57-8.37-10.98-15.31-10.98Z"/>
          <path class="cls-4" d="M1180,365.49c-7.18,0-13.01-5.84-13.01-13.01v-27.12h-10.44v-.74l17.45-18.53h.81v11.45h14.78v7.82h-14.78v26.99c0,2.94,2.39,5.32,5.32,5.32h9.46v7.82h-9.59Z"/>
          <path class="cls-4" d="M1219.72,365.49c-11.79-.11-21.39-9.93-21.39-21.89v-26.06h7.82v26.13c0,7.57,6.06,13.85,13.51,13.99h.27c7.6,0,13.78-6.18,13.78-13.78v-26.35h7.82v26.35c0,11.91-9.69,21.6-21.6,21.6h-.21Z"/>
          <path class="cls-4" d="M981.78,324.58c-4.43-4.42-10.28-6.92-16.48-7.03h-.45c-6.04,0-11.72,2.21-16.15,6.25v-17.71h-7.83v59.41h5.92s1.91-6.3,1.91-6.3c4.32,3.96,9.85,6.18,15.69,6.29h.46c6.49,0,12.56-2.55,17.11-7.18,4.55-4.63,6.98-10.76,6.86-17.26-.12-6.2-2.62-12.05-7.05-16.47ZM965.38,357.66c-.18,0-.35,0-.52,0-4.41,0-8.53-1.75-11.6-4.92-3.07-3.17-4.68-7.35-4.54-11.77.27-8.49,7.13-15.35,15.62-15.62.18,0,.35,0,.53,0,4.41,0,8.53,1.75,11.6,4.92,3.07,3.17,4.68,7.35,4.54,11.77-.27,8.49-7.13,15.35-15.62,15.62Z"/>
          <path class="cls-4" d="M1036.13,317.54l-19.74,44.32-3.5,7.85c-3.49,7.83-11.25,12.87-19.82,12.87h-2.57v-7.83h2.79c5.35,0,10.19-3.15,12.37-8.03l2.16-4.86-19.74-44.32h8.56l15.46,34.69,15.46-34.69h8.57Z"/>
        </g>
      </g>
    </g>
  </g>
</svg>