<svg width="139" height="33" viewBox="0 0 139 33" fill="none" xmlns="http://www.w3.org/2000/svg">
<path d="M132.126 18.9649C132.126 11.3426 129.586 6.54847 125.343 6.54847C121.101 6.54847 118.659 11.2972 118.659 18.9195C118.659 26.5417 121.298 31.4266 125.442 31.4266C129.586 31.4266 132.126 26.6325 132.126 18.9649ZM111.785 18.9649C111.785 10.8965 117.343 6.10233 125.343 6.10233C133.344 6.10233 139 10.8965 139 19.0556C139 27.2147 133.487 31.8728 125.442 31.8728C117.396 31.8728 111.785 27.0786 111.785 18.9649ZM94.0379 15.736C94.0379 11.0704 92.9036 9.0136 90.3175 8.92286V8.47672L100.208 5.78474L100.775 6.14014V12.5903C101.388 10.1252 103.838 5.82254 108.549 5.82254C111.611 5.82254 113.63 7.66005 113.63 9.7244C113.63 11.2897 112.451 12.7718 110.848 12.7718C108.118 12.7718 107.596 8.65064 105.199 8.65064C102.938 8.65064 100.775 12.2803 100.775 15.3277L100.821 26.8442C100.821 28.5002 101.101 31.2829 104.496 31.2829V31.7291H90.3704V31.2829C93.8564 31.2829 94.0454 28.2809 94.0454 26.7156V15.736H94.0379ZM76.5702 9.28582V8.83968L86.461 6.1477L87.0281 6.5031V22.5491C87.0281 27.2147 88.1548 29.2715 90.7939 29.3623V29.8084L80.9031 32.5004L80.336 32.145L80.3814 20.0008C79.4361 28.2507 75.8594 32.145 70.914 32.145C66.8685 32.145 64.1841 29.5437 64.1841 25.1126V16.1443C64.1841 11.4787 63.1481 9.42194 60.6074 9.33119V8.88505L70.4982 6.19307L71.0653 6.54847V21.3392C71.0653 26.2695 72.381 29.453 74.7403 29.453C78.6951 29.453 80.1999 20.084 80.1999 16.099C80.1999 11.4334 79.1639 9.37656 76.5778 9.28582H76.5702ZM49.3026 6.99461H46.5728V6.54847C50.3915 6.05696 54.5807 3.6372 55.7528 0L56.2216 0.136111V6.54091H59.942V6.98705H56.2216V25.6797C56.2216 28.1902 56.5997 29.4001 58.0137 29.4001C59.6168 29.4001 60.5545 27.918 60.5545 26.5342C60.6452 26.3527 60.9779 26.3527 61.0762 26.5342C61.0762 29.0447 59.095 31.9106 55.1402 31.9106C51.6543 31.9106 49.3026 29.7101 49.3026 25.9065V6.99461ZM33.06 16.8098C37.8617 16.6736 40.4024 14.9723 40.4024 11.1158C40.4024 8.24986 38.9884 6.63165 36.9618 6.63165C33.6649 6.63165 31.3586 11.025 31.1241 16.8476L33.0524 16.8022L33.06 16.8098ZM39.0867 29.2715C43.9337 29.2715 46.1493 25.3697 46.3384 23.2221C46.3384 23.0028 46.8072 22.9499 46.8072 23.2221C46.4291 26.451 43.2759 32.092 35.699 32.092C28.7271 32.092 24.1598 27.3433 24.1598 19.8118C24.1598 11.6526 29.4303 6.09477 37.2945 6.09477C42.5651 6.09477 46.4291 8.60527 46.4291 11.9627C46.4291 15.5923 42.0055 17.3391 33.1053 17.3391H31.1241V17.9213C31.1241 25.1806 34.1866 29.2564 39.0791 29.2564L39.0867 29.2715ZM23.2146 12.734C23.2146 14.2993 22.413 16.0536 20.2957 16.0536C18.5036 16.0536 17.4223 14.7983 17.3769 12.6054C17.2861 10.231 18.3675 6.51066 14.1253 6.51066C7.5315 6.51066 6.96437 15.4789 6.96437 18.2994C6.96437 25.2033 10.3596 29.2791 15.7209 29.2791C21.0821 29.2791 23.4414 25.3318 23.6305 23.1843C23.6305 22.965 24.1522 22.9121 24.1522 23.1843C23.7741 26.4132 20.3335 32.0996 12.2425 32.0996C4.85464 32.0996 0 27.3508 0 20.0008C0 11.9702 5.7923 6.05696 13.5582 6.05696C19.2068 6.05696 23.2146 9.24045 23.2146 12.734Z" fill="#04084A"/>
</svg>
